<svg xmlns="http://www.w3.org/2000/svg" width="122" height="28" fill="none"><path fill="#006861" fill-rule="evenodd" d="m4.262 15.815 4.258 2.176v2.613l-4.258-2.176v-2.613Zm4.247-3.033 2.115 1.071c1.176.595 2.135 2.018 2.143 3.179V28l-4.258-2.155V12.782ZM0 8.42l4.258 2.155v13.063l-2.116-1.071C.967 21.97.007 20.548 0 19.387V8.42ZM13.832 14.96l4.26-2.125v13.067c-1.958.977-4.26-.448-4.26-2.636V14.96Zm5.333-2.624 4.26-2.125v13.067l-4.26 2.125V12.337Zm5.31-2.623 4.261-2.125v10.985c0 1.152-.946 2.554-2.117 3.138l-2.144 1.07V9.712Z" clip-rule="evenodd"/><path fill="#27C1B6" fill-rule="evenodd" d="m13.296 13.93 4.26-2.125-12.779-6.56L.517 7.37l12.78 6.56Zm5.333-2.623 4.26-2.124-12.779-6.56-4.26 2.125 12.78 6.56Zm5.31-2.623L28.2 6.56 15.42 0l-4.26 2.125 12.78 6.56Z" clip-rule="evenodd"/><path fill="#111" d="M39.924 7.648V20.5h3.456v-5.076h4.176V20.5h3.456V7.648h-3.456v4.662H43.38V7.648h-3.456Zm22.357 8.892v-1.026c0-.72-.108-1.368-.288-1.962a4.233 4.233 0 0 0-.864-1.494 3.885 3.885 0 0 0-1.422-.954 5.529 5.529 0 0 0-1.962-.342 5.84 5.84 0 0 0-2.016.342 4.209 4.209 0 0 0-1.512 1.008 4.252 4.252 0 0 0-.954 1.62c-.234.648-.342 1.368-.342 2.196 0 1.566.396 2.772 1.206 3.6.792.846 1.998 1.26 3.582 1.26 1.26 0 2.286-.27 3.06-.828.756-.54 1.242-1.386 1.44-2.502h-3.042c-.18.666-.684.99-1.494.99-.54 0-.918-.144-1.17-.432-.252-.288-.396-.792-.45-1.476h6.228Zm-4.536-3.474c.504 0 .864.126 1.116.378.252.252.378.666.414 1.242h-3.222c.036-.504.198-.9.468-1.188.252-.288.666-.432 1.224-.432Zm9.444-5.418h-3.258V20.5h3.258V7.648Zm5.149 3.384H69.17v12.96h3.258v-4.338c.594.756 1.422 1.116 2.484 1.116.594 0 1.134-.108 1.62-.342.486-.216.9-.558 1.26-.99.342-.432.612-.972.792-1.62.18-.648.288-1.368.288-2.196 0-1.548-.342-2.736-.99-3.6-.666-.846-1.602-1.278-2.79-1.278s-2.106.45-2.754 1.35v-1.062Zm.09 4.842v-.27c0-.72.126-1.278.378-1.638.144-.216.324-.378.54-.468.198-.072.414-.126.648-.126.504 0 .882.198 1.17.576.27.378.414.99.414 1.818 0 .864-.144 1.476-.432 1.854-.288.378-.666.558-1.17.558-.216 0-.432-.036-.648-.108-.216-.072-.378-.216-.522-.432-.126-.162-.216-.396-.288-.684-.072-.288-.09-.648-.09-1.08Zm19.58.162-1.836-8.298h-3.186l-1.8 8.298-1.656-8.388h-3.672L83.296 20.5h3.42l1.818-8.226 1.854 8.226h3.456l3.33-12.852H93.61l-1.602 8.388Zm9.705-8.388h-3.294v2.358h3.294V7.648Zm-.018 3.402h-3.258v9.45h3.258v-9.45Zm1.981 0v9.45h3.258v-4.842c0-.396.036-.738.144-.99.108-.252.27-.45.486-.63.198-.144.432-.234.684-.288.252-.054.522-.09.792-.09.18 0 .36.018.54.036.18.018.324.036.468.072l.36-2.79a4.665 4.665 0 0 0-.918-.09c-.576 0-1.062.108-1.494.324-.432.216-.828.54-1.152.99V11.05h-3.168Zm16.718 5.49v-1.026c0-.72-.108-1.368-.288-1.962a4.233 4.233 0 0 0-.864-1.494 3.885 3.885 0 0 0-1.422-.954 5.529 5.529 0 0 0-1.962-.342 5.84 5.84 0 0 0-2.016.342 4.209 4.209 0 0 0-1.512 1.008 4.252 4.252 0 0 0-.954 1.62c-.234.648-.342 1.368-.342 2.196 0 1.566.396 2.772 1.206 3.6.792.846 1.998 1.26 3.582 1.26 1.26 0 2.286-.27 3.06-.828.756-.54 1.242-1.386 1.44-2.502h-3.042c-.18.666-.684.99-1.494.99-.54 0-.918-.144-1.17-.432-.252-.288-.396-.792-.45-1.476h6.228Zm-4.536-3.474c.504 0 .864.126 1.116.378.252.252.378.666.414 1.242h-3.222c.036-.504.198-.9.468-1.188.252-.288.666-.432 1.224-.432Z"/></svg>