<?xml version="1.0" encoding="UTF-8"?>
<svg id="Calque_1" data-name="Calque 1" xmlns="http://www.w3.org/2000/svg" viewBox="0 0 852.07 181.06">
  <defs>
    <style>
      .cls-1 {
        fill: #ff4c00;
      }

      .cls-2 {
        fill: #333a45;
      }
    </style>
  </defs>
  <path class="cls-2" d="M44.73,16.96l-4.65,8.41c-10.5,1.73-28.35-4.78-31.4,9.75l-.09,98.27c.72,4.99,4.54,8.86,9.46,9.85,1.39-7.05.55-14.75,4.06-21.36,5.36-10.1,20.92-13.17,30.92-17.01,6.56-2.52,10.27-3.18,11.28-11.25-5.77-6.91-9.99-14.8-11.73-23.71-1.55,2.21-2.93,3.82-5.7,4.49-6.57,1.6-15.26-.91-16.12-8.61-.44-3.93-.66-13.51.55-16.99,1.42-4.08,4.96-6.23,9.07-6.85.18-8.38,3.18-16.84,7.98-23.67C61.11.18,87.11-4.6,106.76,4.49c14.47,6.7,23.95,21.56,24.6,37.46,3.93.64,7.79,2.91,9.07,6.85.9,2.75.91,15.87.08,18.67-1.92,6.51-8.43,7.67-14.38,7.07-2.42-.24-4.81-1.48-6.09-3.57-2.86,2.47-3.25,6.4-4.66,9.65-1.09,2.51-2.63,5.38-4.17,7.63-.76,1.11-3.56,3.98-3.8,4.8-.44,1.46,1.45,6.25,2.36,7.51,1.22,1.7,8.39,4.14,10.72,5.02,8.6,3.24,21.47,6,27.22,13.57,5.08,6.7,4.79,15.74,5.59,23.74.42.68,3.14-.56,3.78-.89,3.02-1.56,5.77-5.13,6.08-8.58l-.18-99.29c-1.22-4.77-5.47-8.16-10.38-8.58-6.8-.58-14.36.51-21.24-.05l-4.35-8.52h25.94c9.65,0,18.41,8.83,18.8,18.41l-.06,98.69c.59,6.44-9.4,17.75-15.52,17.75h-18.78v26.65c0,1.64-4.36,3.68-5.85,1.91-11.92-9.4-23.17-19.67-35.55-28.49l-78.99-.08c-9.03-1.11-16.09-8.73-17.01-17.69L.02,34.31c-.13-6.61,9.5-17.35,15.92-17.35h28.8ZM120.23,44.14l4.5-2.13c-2.21-25.4-26.71-40.49-50.93-33.37-12.33,3.62-22.06,13.58-25.58,25.93-.37,1.31-1.88,6.87-.98,7.61.23.19,4.13,2.14,4.29,1.96.57-14.61,10.44-27.26,24.61-31.02,21.82-5.78,42.59,8.49,44.09,31.02ZM111.62,42.73c-13.31.42-26.47-.98-38.01-7.96-1.36-.82-2.71-2.11-3.99-2.81-.31-.17-.55-.58-.93-.16-1.2,4.5-3.55,8.54-6.44,12.16-.92,1.15-4.83,4.8-5.17,5.56-.67,1.47.29,11.79.58,14.07,1.41,11.21,6.19,23.15,16.08,29.35s22.35,3.68,30.21-5.15c.45-.51,3.74-4.67,3.39-5.01-1.55.76-3.07,1.37-4.73,1.88-1.45.44-3.51.5-4.66,1.06-1.04.5-1.17,1.43-1.87,2.06-3.46,3.15-13.2,2.49-14.33-2.84-1.49-7.06,7.47-9.1,12.61-6.88,3.09,1.33,1.55,3.17,5.67,1.87s8.9-4.47,11.41-7.91c1.61-2.22,1.89-6.33,2.01-9.08.31-6.66-.64-13.69-1.82-20.21ZM101.98,98.16c-.46-.39-3.64,1.53-4.41,1.85-7.16,3-13.13,3.53-20.64,1.19-2.5-.78-4.7-2.17-7.15-3.04l-1.78,4.47,6.24,8.41,11.8,12.86c3.14-3.64,6.58-7.05,9.68-10.72,1.42-1.68,6.85-7.9,7.41-9.41.77-2.07-1.14-3.54-1.16-5.62ZM146.34,143.23c-1.03-5.12-.38-10.68-2.05-15.66-1.43-4.3-5.29-7.85-9.41-9.55l-25.94-9.84-.89.52-16.45,23.26c-.43.51-.98.77-1.63.87-1.56.24-6.25.22-7.86.03-.58-.07-1.13-.13-1.58-.56l-17.72-24-27.37,10.44c-9.9,4.89-9.27,14.93-9.67,24.5h74.24c8.73,6.02,16.08,13.8,24.34,20.38,1.29,1.03,2.88,2.62,4.46,2.87v-22c0-.09,1.16-1.25,1.25-1.25h16.28Z"/>
  <path class="cls-1" d="M146.34,143.23h-16.28c-.09,0-1.25,1.16-1.25,1.25v22c-1.58-.25-3.17-1.84-4.46-2.87-8.25-6.58-15.6-14.36-24.34-20.38H25.77c.4-9.57-.23-19.6,9.67-24.5l27.37-10.44,17.72,24c.45.43,1,.49,1.58.56,1.61.19,6.3.21,7.86-.03.65-.1,1.2-.37,1.63-.87l16.45-23.26.89-.52,25.94,9.84c4.13,1.7,7.98,5.25,9.41,9.55,1.66,4.98,1.02,10.54,2.05,15.66Z"/>
  <g>
    <g>
      <path class="cls-2" d="M198.83,36.75h7.96v40.39h-7.96v-40.39Z"/>
      <path class="cls-2" d="M216.13,36.75h9.89l16.16,30.08v-30.08h7.54v40.39h-9.65l-16.4-30.32v30.32h-7.54v-40.39Z"/>
      <path class="cls-2" d="M258.75,36.75h28.64v6.75h-20.68v12.3h17.36v6.63h-17.36v14.71h-7.96v-40.39Z"/>
      <path class="cls-2" d="M291.67,56.94c0-12.6,7.48-20.92,19.71-20.92s19.65,7.72,19.65,20.92-7.36,20.92-19.65,20.92-19.71-7.72-19.71-20.92ZM323.08,56.94c0-9.34-4.28-14.17-11.7-14.17s-11.7,5.31-11.7,14.17c0,9.4,4.22,14.17,11.7,14.17s11.7-4.76,11.7-14.17Z"/>
      <path class="cls-2" d="M338.03,37.17c5.31-.66,10.31-1.15,14.47-1.15,10.79,0,17.3,4.4,17.3,14.41,0,5.85-2.95,10.19-7.78,12.42l8.5,14.29h-8.74l-7.17-12.48c-.54.06-1.15.06-1.69.06-2.23,0-4.52-.12-6.93-.36v12.78h-7.96v-39.97ZM345.99,43.02v14.65c2.47.3,4.76.42,6.99.42,4.76,0,8.92-2.35,8.92-7.6,0-6.39-3.8-7.9-9.41-7.9-1.81,0-4.1.12-6.51.42Z"/>
      <path class="cls-2" d="M377.45,36.75h11.21l9.65,25.74,9.71-25.74h11.15v40.39h-7.42v-30.99l-10.19,25.74h-6.57l-10.13-25.74v30.99h-7.42v-40.39Z"/>
      <path class="cls-2" d="M438.04,36.75h11.82l13.93,40.39h-8.02l-3.25-9.47h-17.18l-3.25,9.47h-7.9l13.87-40.39ZM450.28,61.1l-5.61-17.72h-1.51l-5.67,17.72h12.78Z"/>
      <path class="cls-2" d="M475.6,43.5h-13.2v-6.75h34.36v6.75h-13.2v33.64h-7.96v-33.64Z"/>
      <path class="cls-2" d="M502.54,36.75h7.96v40.39h-7.96v-40.39Z"/>
      <path class="cls-2" d="M535.88,78.11l-.12-.3c-11.21-.66-17.97-8.32-17.97-20.86s7.48-20.92,19.71-20.92,19.65,7.72,19.65,20.92c0,10.85-5,18.03-13.62,20.26,1.81,3.68,5.79,4.88,10.55,4.52v5.85c-1.21.18-2.35.24-3.44.24-7.05,0-11.82-3.13-14.77-9.71ZM549.21,56.94c0-9.34-4.28-14.17-11.7-14.17s-11.7,5.31-11.7,14.17c0,9.4,4.22,14.17,11.7,14.17s11.7-4.76,11.7-14.17Z"/>
      <path class="cls-2" d="M563.91,60.14v-23.39h7.96v23.27c0,7.9,2.95,11.09,8.62,11.09s8.56-3.2,8.56-11.09v-23.27h7.96v23.39c0,11.94-5.73,17.72-16.52,17.72s-16.58-5.79-16.58-17.72Z"/>
      <path class="cls-2" d="M605.81,36.75h28.64v6.57h-20.68v10.19h17.36v6.57h-17.36v10.49h20.68v6.57h-28.64v-40.39Z"/>
      <path class="cls-2" d="M642.16,73.28c0-2.83,1.87-4.52,4.76-4.52s4.76,1.69,4.76,4.52-1.87,4.52-4.76,4.52-4.76-1.63-4.76-4.52Z"/>
      <path class="cls-2" d="M660.25,36.75h7.96v40.39h-7.96v-40.39Z"/>
      <path class="cls-2" d="M687.19,43.5h-13.2v-6.75h34.36v6.75h-13.2v33.64h-7.96v-33.64Z"/>
      <path class="cls-2" d="M710.95,73.28c0-2.83,1.87-4.52,4.76-4.52s4.76,1.69,4.76,4.52-1.87,4.52-4.76,4.52-4.76-1.63-4.76-4.52Z"/>
      <path class="cls-2" d="M725.11,57.13c0-12.66,8.02-21.1,20.38-21.1,5.91,0,11.39,1.99,14.89,5.25l-3.44,5.79c-2.89-2.41-6.63-4.16-11.15-4.16-7.9,0-12.66,5.43-12.66,13.99s4.82,14.11,12.96,14.11c4.52,0,8.32-1.69,11.27-4.1l3.07,5.85c-3.74,3.26-9.04,5.12-14.95,5.12-12.42,0-20.38-8.08-20.38-20.74Z"/>
      <path class="cls-2" d="M764,56.94c0-12.6,7.48-20.92,19.71-20.92s19.65,7.72,19.65,20.92-7.36,20.92-19.65,20.92-19.71-7.72-19.71-20.92ZM795.41,56.94c0-9.34-4.28-14.17-11.7-14.17s-11.7,5.31-11.7,14.17c0,9.4,4.22,14.17,11.7,14.17s11.7-4.76,11.7-14.17Z"/>
      <path class="cls-2" d="M810.36,36.75h11.21l9.65,25.74,9.71-25.74h11.15v40.39h-7.42v-30.99l-10.19,25.74h-6.57l-10.13-25.74v30.99h-7.42v-40.39Z"/>
    </g>
    <g>
      <path class="cls-1" d="M197.33,107h21.68v4.97h-15.65v7.71h13.14v4.97h-13.14v7.94h15.65v4.97h-21.68v-30.58Z"/>
      <path class="cls-1" d="M225.45,107h7.49l12.23,22.77v-22.77h5.71v30.58h-7.3l-12.41-22.96v22.96h-5.71v-30.58Z"/>
      <path class="cls-1" d="M265.02,112.11h-10v-5.11h26.01v5.11h-9.99v25.47h-6.02v-25.47Z"/>
      <path class="cls-1" d="M285.2,107.32c4.02-.5,7.8-.87,10.95-.87,8.17,0,13.1,3.33,13.1,10.91,0,4.43-2.24,7.71-5.89,9.4l6.44,10.82h-6.62l-5.43-9.45c-.41.05-.87.05-1.28.05-1.69,0-3.42-.09-5.25-.27v9.68h-6.02v-30.26ZM291.22,111.74v11.09c1.87.23,3.61.32,5.29.32,3.61,0,6.75-1.78,6.75-5.75,0-4.84-2.88-5.98-7.12-5.98-1.37,0-3.1.09-4.93.32Z"/>
      <path class="cls-1" d="M315.05,107h21.68v4.97h-15.65v7.71h13.14v4.97h-13.14v7.94h15.65v4.97h-21.68v-30.58Z"/>
      <path class="cls-1" d="M343.17,107.32c4.02-.5,7.8-.87,10.95-.87,8.12,0,13.14,4.02,13.14,11.36s-5.34,11.46-12.83,11.46c-1.69,0-3.42-.09-5.25-.23v8.53h-6.02v-30.26ZM349.19,111.92v12.05c1.73.23,3.65.32,5.11.32,3.65,0,6.94-1.83,6.94-6.39s-2.97-6.34-7.26-6.34c-1.32,0-2.97.09-4.79.37Z"/>
      <path class="cls-1" d="M372.38,107.32c4.02-.5,7.8-.87,10.95-.87,8.17,0,13.1,3.33,13.1,10.91,0,4.43-2.24,7.71-5.89,9.4l6.44,10.82h-6.62l-5.43-9.45c-.41.05-.87.05-1.28.05-1.69,0-3.42-.09-5.25-.27v9.68h-6.02v-30.26ZM378.4,111.74v11.09c1.87.23,3.61.32,5.29.32,3.61,0,6.75-1.78,6.75-5.75,0-4.84-2.88-5.98-7.12-5.98-1.37,0-3.1.09-4.93.32Z"/>
      <path class="cls-1" d="M402.46,107h6.02v30.58h-6.02v-30.58Z"/>
      <path class="cls-1" d="M413.96,133.65l2.74-4.02c2.46,2.24,6.16,3.74,9.13,3.74,3.24,0,5.48-1.37,5.48-4.02,0-2.97-3.01-3.83-6.48-4.66-4.38-1.05-9.95-2.69-9.95-9.08,0-5.43,4.11-9.22,11.14-9.22,4.06,0,8.08,1.37,10.77,3.92l-2.24,4.15c-2.42-1.96-5.39-3.38-8.4-3.38-3.61,0-5.16,1.78-5.16,3.74,0,3.01,2.74,3.83,6.62,4.79,4.56,1.14,9.86,2.69,9.86,9.08s-5.2,9.4-11.59,9.4c-4.43,0-8.99-1.64-11.91-4.47Z"/>
      <path class="cls-1" d="M442.81,107h21.68v4.97h-15.65v7.71h13.14v4.97h-13.14v7.94h15.65v4.97h-21.68v-30.58Z"/>
      <path class="cls-1" d="M469.33,133.65l2.74-4.02c2.46,2.24,6.16,3.74,9.13,3.74,3.24,0,5.48-1.37,5.48-4.02,0-2.97-3.01-3.83-6.48-4.66-4.38-1.05-9.95-2.69-9.95-9.08,0-5.43,4.11-9.22,11.14-9.22,4.06,0,8.08,1.37,10.77,3.92l-2.24,4.15c-2.42-1.96-5.39-3.38-8.4-3.38-3.61,0-5.16,1.78-5.16,3.74,0,3.01,2.74,3.83,6.62,4.79,4.56,1.14,9.86,2.69,9.86,9.08s-5.2,9.4-11.59,9.4c-4.43,0-8.99-1.64-11.91-4.47Z"/>
      <path class="cls-1" d="M520.72,102.8h5.61l-13.14,36.42h-5.61l13.14-36.42Z"/>
      <path class="cls-1" d="M542.58,107.32c4.02-.5,7.8-.87,10.95-.87,8.12,0,13.14,4.02,13.14,11.36s-5.34,11.46-12.83,11.46c-1.69,0-3.42-.09-5.25-.23v8.53h-6.02v-30.26ZM548.61,111.92v12.05c1.73.23,3.65.32,5.11.32,3.65,0,6.94-1.83,6.94-6.39s-2.97-6.34-7.26-6.34c-1.32,0-2.97.09-4.79.37Z"/>
      <path class="cls-1" d="M577.36,107h8.94l10.54,30.58h-6.07l-2.46-7.17h-13.01l-2.46,7.17h-5.98l10.5-30.58ZM586.63,125.43l-4.25-13.42h-1.14l-4.29,13.42h9.68Z"/>
      <path class="cls-1" d="M600.69,107.32c4.02-.5,7.8-.87,10.95-.87,8.17,0,13.1,3.33,13.1,10.91,0,4.43-2.24,7.71-5.89,9.4l6.44,10.82h-6.62l-5.43-9.45c-.41.05-.87.05-1.28.05-1.69,0-3.42-.09-5.25-.27v9.68h-6.02v-30.26ZM606.71,111.74v11.09c1.87.23,3.61.32,5.29.32,3.61,0,6.75-1.78,6.75-5.75,0-4.84-2.88-5.98-7.12-5.98-1.37,0-3.1.09-4.93.32Z"/>
      <path class="cls-1" d="M637.8,112.11h-10v-5.11h26.01v5.11h-9.99v25.47h-6.02v-25.47Z"/>
      <path class="cls-1" d="M658.2,107h6.02v30.58h-6.02v-30.58Z"/>
      <path class="cls-1" d="M669.75,122.42c0-9.58,6.07-15.97,15.43-15.97,4.47,0,8.63,1.51,11.27,3.97l-2.6,4.38c-2.19-1.83-5.02-3.15-8.44-3.15-5.98,0-9.58,4.11-9.58,10.59s3.65,10.68,9.81,10.68c3.42,0,6.3-1.28,8.53-3.1l2.33,4.43c-2.83,2.46-6.85,3.88-11.32,3.88-9.4,0-15.43-6.12-15.43-15.7Z"/>
      <path class="cls-1" d="M701.1,124.7v-17.71h6.02v17.62c0,5.98,2.24,8.4,6.53,8.4s6.48-2.42,6.48-8.4v-17.62h6.02v17.71c0,9.04-4.33,13.42-12.5,13.42s-12.55-4.38-12.55-13.42Z"/>
      <path class="cls-1" d="M732.83,107h6.02v25.47h14.83v5.11h-20.86v-30.58Z"/>
      <path class="cls-1" d="M758.71,107h6.02v30.58h-6.02v-30.58Z"/>
      <path class="cls-1" d="M771.81,107h21.68v4.97h-15.65v7.71h13.14v4.97h-13.14v7.94h15.65v4.97h-21.68v-30.58Z"/>
      <path class="cls-1" d="M799.92,107.32c4.02-.5,7.8-.87,10.95-.87,8.17,0,13.1,3.33,13.1,10.91,0,4.43-2.24,7.71-5.89,9.4l6.44,10.82h-6.62l-5.43-9.45c-.41.05-.87.05-1.28.05-1.69,0-3.42-.09-5.25-.27v9.68h-6.02v-30.26ZM805.95,111.74v11.09c1.87.23,3.61.32,5.29.32,3.61,0,6.75-1.78,6.75-5.75,0-4.84-2.88-5.98-7.12-5.98-1.37,0-3.1.09-4.93.32Z"/>
      <path class="cls-1" d="M828.18,133.65l2.74-4.02c2.46,2.24,6.16,3.74,9.13,3.74,3.24,0,5.48-1.37,5.48-4.02,0-2.97-3.01-3.83-6.48-4.66-4.38-1.05-9.95-2.69-9.95-9.08,0-5.43,4.11-9.22,11.14-9.22,4.06,0,8.08,1.37,10.77,3.92l-2.24,4.15c-2.42-1.96-5.39-3.38-8.4-3.38-3.61,0-5.16,1.78-5.16,3.74,0,3.01,2.74,3.83,6.62,4.79,4.56,1.14,9.86,2.69,9.86,9.08s-5.2,9.4-11.59,9.4c-4.43,0-8.99-1.64-11.91-4.47Z"/>
    </g>
  </g>
</svg>