<?xml version="1.0" encoding="UTF-8"?>
<svg id="Calque_1" data-name="Calque 1" xmlns="http://www.w3.org/2000/svg" viewBox="0 0 380.13 268.64">
  <defs>
    <style>
      .cls-1 {
        fill: #ff4c00;
      }

      .cls-2 {
        fill: #333a45;
      }
    </style>
  </defs>
  <g>
    <path class="cls-2" d="M.87,209.14h4.62v23.45H.87v-23.45Z"/>
    <path class="cls-2" d="M10.92,209.14h5.74l9.38,17.47v-17.47h4.38v23.45h-5.6l-9.52-17.61v17.61h-4.38v-23.45Z"/>
    <path class="cls-2" d="M35.66,209.14h16.63v3.92h-12.01v7.14h10.08v3.85h-10.08v8.54h-4.62v-23.45Z"/>
    <path class="cls-2" d="M54.77,220.87c0-7.32,4.34-12.15,11.45-12.15s11.41,4.48,11.41,12.15-4.27,12.15-11.41,12.15-11.45-4.48-11.45-12.15ZM73.01,220.87c0-5.43-2.48-8.23-6.79-8.23s-6.79,3.08-6.79,8.23c0,5.46,2.45,8.23,6.79,8.23s6.79-2.77,6.79-8.23Z"/>
    <path class="cls-2" d="M81.68,209.39c3.08-.38,5.99-.67,8.4-.67,6.27,0,10.05,2.56,10.05,8.37,0,3.4-1.72,5.92-4.52,7.21l4.94,8.3h-5.08l-4.17-7.25c-.32.03-.67.03-.98.03-1.29,0-2.62-.07-4.03-.21v7.42h-4.62v-23.21ZM86.3,212.78v8.51c1.44.17,2.77.25,4.06.25,2.77,0,5.18-1.37,5.18-4.41,0-3.71-2.21-4.59-5.46-4.59-1.05,0-2.38.07-3.78.25Z"/>
    <path class="cls-2" d="M104.57,209.14h6.51l5.6,14.95,5.64-14.95h6.48v23.45h-4.31v-17.99l-5.92,14.95h-3.82l-5.88-14.95v17.99h-4.31v-23.45Z"/>
    <path class="cls-2" d="M139.75,209.14h6.86l8.09,23.45h-4.66l-1.89-5.5h-9.98l-1.89,5.5h-4.59l8.05-23.45ZM146.85,223.28l-3.26-10.29h-.88l-3.29,10.29h7.42Z"/>
    <path class="cls-2" d="M161.55,213.06h-7.67v-3.92h19.95v3.92h-7.67v19.53h-4.62v-19.53Z"/>
    <path class="cls-2" d="M177.2,209.14h4.62v23.45h-4.62v-23.45Z"/>
    <path class="cls-2" d="M196.55,233.16l-.07-.17c-6.51-.39-10.43-4.83-10.43-12.11s4.34-12.15,11.45-12.15,11.41,4.48,11.41,12.15c0,6.3-2.91,10.47-7.91,11.76,1.05,2.14,3.36,2.83,6.13,2.62v3.4c-.7.1-1.37.14-2,.14-4.1,0-6.86-1.82-8.58-5.64ZM204.29,220.87c0-5.43-2.48-8.23-6.79-8.23s-6.79,3.08-6.79,8.23c0,5.46,2.45,8.23,6.79,8.23s6.79-2.77,6.79-8.23Z"/>
    <path class="cls-2" d="M212.83,222.72v-13.58h4.62v13.51c0,4.59,1.71,6.44,5,6.44s4.97-1.85,4.97-6.44v-13.51h4.62v13.58c0,6.93-3.33,10.29-9.59,10.29s-9.63-3.36-9.63-10.29Z"/>
    <path class="cls-2" d="M237.15,209.14h16.63v3.82h-12.01v5.92h10.08v3.82h-10.08v6.09h12.01v3.82h-16.63v-23.45Z"/>
    <path class="cls-2" d="M258.26,230.36c0-1.65,1.08-2.63,2.77-2.63s2.76.98,2.76,2.63-1.08,2.63-2.76,2.63-2.77-.95-2.77-2.63Z"/>
    <path class="cls-2" d="M268.76,209.14h4.62v23.45h-4.62v-23.45Z"/>
    <path class="cls-2" d="M284.4,213.06h-7.67v-3.92h19.95v3.92h-7.67v19.53h-4.62v-19.53Z"/>
    <path class="cls-2" d="M298.19,230.36c0-1.65,1.08-2.63,2.77-2.63s2.76.98,2.76,2.63-1.08,2.63-2.76,2.63-2.77-.95-2.77-2.63Z"/>
    <path class="cls-2" d="M306.42,220.97c0-7.35,4.66-12.25,11.83-12.25,3.43,0,6.62,1.16,8.65,3.05l-2,3.36c-1.68-1.4-3.85-2.42-6.48-2.42-4.58,0-7.35,3.15-7.35,8.12s2.8,8.19,7.53,8.19c2.63,0,4.83-.98,6.55-2.38l1.79,3.4c-2.17,1.89-5.25,2.98-8.68,2.98-7.21,0-11.83-4.69-11.83-12.04Z"/>
    <path class="cls-2" d="M328.99,220.87c0-7.32,4.34-12.15,11.45-12.15s11.41,4.48,11.41,12.15-4.27,12.15-11.41,12.15-11.45-4.48-11.45-12.15ZM347.23,220.87c0-5.43-2.49-8.23-6.79-8.23s-6.79,3.08-6.79,8.23c0,5.46,2.45,8.23,6.79,8.23s6.79-2.77,6.79-8.23Z"/>
    <path class="cls-2" d="M355.91,209.14h6.51l5.6,14.95,5.64-14.95h6.48v23.45h-4.31v-17.99l-5.92,14.95h-3.82l-5.88-14.95v17.99h-4.31v-23.45Z"/>
  </g>
  <path class="cls-2" d="M149.07,16.96l-4.65,8.41c-10.5,1.73-28.35-4.78-31.4,9.75l-.09,98.27c.72,4.99,4.54,8.86,9.46,9.85,1.39-7.05.55-14.75,4.06-21.36,5.36-10.1,20.92-13.17,30.92-17.01,6.56-2.52,10.27-3.18,11.28-11.25-5.77-6.91-9.99-14.8-11.73-23.71-1.55,2.21-2.93,3.82-5.7,4.49-6.57,1.6-15.26-.91-16.12-8.61-.44-3.93-.66-13.51.55-16.99,1.42-4.08,4.96-6.23,9.07-6.85.18-8.38,3.18-16.84,7.98-23.67C165.44.18,191.45-4.6,211.09,4.49c14.47,6.7,23.95,21.56,24.6,37.46,3.93.64,7.79,2.91,9.07,6.85.9,2.75.91,15.87.08,18.67-1.92,6.51-8.43,7.67-14.38,7.07-2.42-.24-4.81-1.48-6.09-3.57-2.86,2.47-3.25,6.4-4.66,9.65-1.09,2.51-2.63,5.38-4.17,7.63-.76,1.11-3.56,3.98-3.8,4.8-.44,1.46,1.45,6.25,2.36,7.51,1.22,1.7,8.39,4.14,10.72,5.02,8.6,3.24,21.47,6,27.22,13.57,5.08,6.7,4.79,15.74,5.59,23.74.42.68,3.14-.56,3.78-.89,3.02-1.56,5.77-5.13,6.08-8.58l-.18-99.29c-1.22-4.77-5.47-8.16-10.38-8.58-6.8-.58-14.36.51-21.24-.05l-4.35-8.52h25.94c9.65,0,18.41,8.83,18.8,18.41l-.06,98.69c.59,6.44-9.4,17.75-15.52,17.75h-18.78v26.65c0,1.64-4.36,3.68-5.85,1.91-11.92-9.4-23.17-19.67-35.55-28.49l-78.99-.08c-9.03-1.11-16.09-8.73-17.01-17.69l.02-99.81c-.13-6.61,9.5-17.35,15.92-17.35h28.8ZM224.56,44.14l4.5-2.13c-2.21-25.4-26.71-40.49-50.93-33.37-12.33,3.62-22.06,13.58-25.58,25.93-.37,1.31-1.88,6.87-.98,7.61.23.19,4.13,2.14,4.29,1.96.57-14.61,10.44-27.26,24.61-31.02,21.82-5.78,42.59,8.49,44.09,31.02ZM215.96,42.73c-13.31.42-26.47-.98-38.01-7.96-1.36-.82-2.71-2.11-3.99-2.81-.31-.17-.55-.58-.93-.16-1.2,4.5-3.55,8.54-6.44,12.16-.92,1.15-4.83,4.8-5.17,5.56-.67,1.47.29,11.79.58,14.07,1.41,11.21,6.19,23.15,16.08,29.35s22.35,3.68,30.21-5.15c.45-.51,3.74-4.67,3.39-5.01-1.55.76-3.07,1.37-4.73,1.88-1.45.44-3.51.5-4.66,1.06-1.04.5-1.17,1.43-1.87,2.06-3.46,3.15-13.2,2.49-14.33-2.84-1.49-7.06,7.47-9.1,12.61-6.88,3.09,1.33,1.55,3.17,5.67,1.87,4.04-1.28,8.9-4.47,11.41-7.91,1.61-2.22,1.89-6.33,2.01-9.08.31-6.66-.64-13.69-1.82-20.21ZM206.31,98.16c-.46-.39-3.64,1.53-4.41,1.85-7.16,3-13.13,3.53-20.64,1.19-2.5-.78-4.7-2.17-7.15-3.04l-1.78,4.47,6.24,8.41,11.8,12.86c3.14-3.64,6.58-7.05,9.68-10.72,1.42-1.68,6.85-7.9,7.41-9.41.77-2.07-1.14-3.54-1.16-5.62ZM250.68,143.23c-1.03-5.12-.38-10.68-2.05-15.66-1.43-4.3-5.29-7.85-9.41-9.55l-25.94-9.84-.89.52-16.45,23.26c-.43.51-.98.77-1.63.87-1.56.24-6.25.22-7.86.03-.58-.07-1.13-.13-1.58-.56l-17.72-24-27.37,10.44c-9.9,4.89-9.27,14.93-9.67,24.5h74.24c8.73,6.02,16.08,13.8,24.34,20.38,1.29,1.03,2.88,2.62,4.46,2.87v-22c0-.09,1.16-1.25,1.25-1.25h16.28Z"/>
  <path class="cls-1" d="M250.68,143.23h-16.28c-.09,0-1.25,1.16-1.25,1.25v22c-1.58-.25-3.17-1.84-4.46-2.87-8.25-6.58-15.6-14.36-24.34-20.38h-74.24c.4-9.57-.23-19.6,9.67-24.5l27.37-10.44,17.72,24c.45.43,1,.49,1.58.56,1.61.19,6.3.21,7.86-.03.65-.1,1.2-.37,1.63-.87l16.45-23.26.89-.52,25.94,9.84c4.13,1.7,7.98,5.25,9.41,9.55,1.66,4.98,1.02,10.54,2.05,15.66Z"/>
  <g>
    <path class="cls-1" d="M0,249.92h12.59v2.89H3.5v4.48h7.63v2.89H3.5v4.61h9.09v2.89H0v-17.76Z"/>
    <path class="cls-1" d="M16.32,249.92h4.35l7.1,13.23v-13.23h3.31v17.76h-4.24l-7.21-13.33v13.33h-3.31v-17.76Z"/>
    <path class="cls-1" d="M39.3,252.89h-5.8v-2.97h15.11v2.97h-5.8v14.79h-3.5v-14.79Z"/>
    <path class="cls-1" d="M51.01,250.11c2.33-.29,4.53-.5,6.36-.5,4.74,0,7.61,1.94,7.61,6.33,0,2.57-1.3,4.48-3.42,5.46l3.74,6.28h-3.84l-3.15-5.49c-.24.03-.5.03-.74.03-.98,0-1.99-.05-3.05-.16v5.62h-3.5v-17.57ZM54.51,252.68v6.44c1.09.13,2.09.19,3.07.19,2.09,0,3.92-1.03,3.92-3.34,0-2.81-1.67-3.47-4.13-3.47-.8,0-1.8.05-2.86.19Z"/>
    <path class="cls-1" d="M68.34,249.92h12.59v2.89h-9.09v4.48h7.63v2.89h-7.63v4.61h9.09v2.89h-12.59v-17.76Z"/>
    <path class="cls-1" d="M84.67,250.11c2.33-.29,4.53-.5,6.36-.5,4.72,0,7.63,2.33,7.63,6.6s-3.1,6.65-7.45,6.65c-.98,0-1.99-.05-3.05-.13v4.96h-3.5v-17.57ZM88.17,252.79v7c1.01.13,2.12.19,2.97.19,2.12,0,4.03-1.06,4.03-3.71s-1.72-3.68-4.21-3.68c-.77,0-1.72.05-2.78.21Z"/>
    <path class="cls-1" d="M101.63,250.11c2.33-.29,4.53-.5,6.36-.5,4.74,0,7.61,1.94,7.61,6.33,0,2.57-1.3,4.48-3.42,5.46l3.74,6.28h-3.84l-3.15-5.49c-.24.03-.5.03-.74.03-.98,0-1.99-.05-3.05-.16v5.62h-3.5v-17.57ZM105.12,252.68v6.44c1.09.13,2.09.19,3.07.19,2.09,0,3.92-1.03,3.92-3.34,0-2.81-1.67-3.47-4.13-3.47-.8,0-1.8.05-2.86.19Z"/>
    <path class="cls-1" d="M119.09,249.92h3.5v17.76h-3.5v-17.76Z"/>
    <path class="cls-1" d="M125.77,265.4l1.59-2.33c1.43,1.3,3.58,2.17,5.3,2.17,1.88,0,3.18-.79,3.18-2.33,0-1.72-1.75-2.23-3.76-2.7-2.54-.61-5.78-1.56-5.78-5.27,0-3.15,2.39-5.35,6.47-5.35,2.36,0,4.69.79,6.26,2.28l-1.3,2.41c-1.4-1.14-3.13-1.96-4.88-1.96-2.09,0-2.99,1.03-2.99,2.17,0,1.75,1.59,2.23,3.84,2.78,2.65.66,5.73,1.56,5.73,5.27s-3.02,5.46-6.73,5.46c-2.57,0-5.22-.95-6.92-2.6Z"/>
    <path class="cls-1" d="M142.52,249.92h12.59v2.89h-9.09v4.48h7.63v2.89h-7.63v4.61h9.09v2.89h-12.59v-17.76Z"/>
    <path class="cls-1" d="M157.91,265.4l1.59-2.33c1.43,1.3,3.58,2.17,5.3,2.17,1.88,0,3.18-.79,3.18-2.33,0-1.72-1.75-2.23-3.76-2.7-2.54-.61-5.78-1.56-5.78-5.27,0-3.15,2.39-5.35,6.47-5.35,2.36,0,4.69.79,6.25,2.28l-1.3,2.41c-1.4-1.14-3.13-1.96-4.88-1.96-2.09,0-2.99,1.03-2.99,2.17,0,1.75,1.59,2.23,3.84,2.78,2.65.66,5.73,1.56,5.73,5.27s-3.02,5.46-6.73,5.46c-2.57,0-5.22-.95-6.92-2.6Z"/>
    <path class="cls-1" d="M187.75,247.49h3.26l-7.63,21.15h-3.26l7.63-21.15Z"/>
    <path class="cls-1" d="M200.44,250.11c2.33-.29,4.53-.5,6.36-.5,4.72,0,7.63,2.33,7.63,6.6s-3.1,6.65-7.45,6.65c-.98,0-1.99-.05-3.05-.13v4.96h-3.5v-17.57ZM203.94,252.79v7c1.01.13,2.12.19,2.97.19,2.12,0,4.03-1.06,4.03-3.71s-1.72-3.68-4.21-3.68c-.77,0-1.72.05-2.78.21Z"/>
    <path class="cls-1" d="M220.64,249.92h5.19l6.12,17.76h-3.53l-1.43-4.16h-7.55l-1.43,4.16h-3.47l6.1-17.76ZM226.02,260.63l-2.46-7.79h-.66l-2.49,7.79h5.62Z"/>
    <path class="cls-1" d="M234.18,250.11c2.33-.29,4.53-.5,6.36-.5,4.74,0,7.61,1.94,7.61,6.33,0,2.57-1.3,4.48-3.42,5.46l3.74,6.28h-3.84l-3.15-5.49c-.24.03-.5.03-.74.03-.98,0-1.99-.05-3.05-.16v5.62h-3.5v-17.57ZM237.68,252.68v6.44c1.09.13,2.09.19,3.07.19,2.09,0,3.92-1.03,3.92-3.34,0-2.81-1.67-3.47-4.13-3.47-.79,0-1.8.05-2.86.19Z"/>
    <path class="cls-1" d="M255.72,252.89h-5.8v-2.97h15.11v2.97h-5.8v14.79h-3.5v-14.79Z"/>
    <path class="cls-1" d="M267.57,249.92h3.5v17.76h-3.5v-17.76Z"/>
    <path class="cls-1" d="M274.27,258.88c0-5.57,3.52-9.28,8.96-9.28,2.6,0,5.01.87,6.55,2.31l-1.51,2.54c-1.27-1.06-2.92-1.83-4.9-1.83-3.47,0-5.57,2.39-5.57,6.15s2.12,6.2,5.7,6.2c1.99,0,3.66-.74,4.96-1.8l1.35,2.57c-1.64,1.43-3.98,2.25-6.57,2.25-5.46,0-8.96-3.55-8.96-9.12Z"/>
    <path class="cls-1" d="M292.48,260.21v-10.28h3.5v10.23c0,3.47,1.3,4.88,3.79,4.88s3.76-1.4,3.76-4.88v-10.23h3.5v10.28c0,5.25-2.52,7.79-7.26,7.79s-7.29-2.54-7.29-7.79Z"/>
    <path class="cls-1" d="M310.89,249.92h3.5v14.79h8.61v2.97h-12.11v-17.76Z"/>
    <path class="cls-1" d="M325.92,249.92h3.5v17.76h-3.5v-17.76Z"/>
    <path class="cls-1" d="M333.53,249.92h12.59v2.89h-9.09v4.48h7.63v2.89h-7.63v4.61h9.09v2.89h-12.59v-17.76Z"/>
    <path class="cls-1" d="M349.85,250.11c2.33-.29,4.53-.5,6.36-.5,4.74,0,7.61,1.94,7.61,6.33,0,2.57-1.3,4.48-3.42,5.46l3.74,6.28h-3.84l-3.15-5.49c-.24.03-.5.03-.74.03-.98,0-1.99-.05-3.05-.16v5.62h-3.5v-17.57ZM353.35,252.68v6.44c1.09.13,2.09.19,3.07.19,2.09,0,3.92-1.03,3.92-3.34,0-2.81-1.67-3.47-4.13-3.47-.79,0-1.8.05-2.86.19Z"/>
    <path class="cls-1" d="M366.25,265.4l1.59-2.33c1.43,1.3,3.58,2.17,5.3,2.17,1.88,0,3.18-.79,3.18-2.33,0-1.72-1.75-2.23-3.76-2.7-2.54-.61-5.78-1.56-5.78-5.27,0-3.15,2.39-5.35,6.47-5.35,2.36,0,4.69.79,6.25,2.28l-1.3,2.41c-1.4-1.14-3.13-1.96-4.88-1.96-2.09,0-3,1.03-3,2.17,0,1.75,1.59,2.23,3.84,2.78,2.65.66,5.72,1.56,5.72,5.27s-3.02,5.46-6.73,5.46c-2.57,0-5.22-.95-6.92-2.6Z"/>
  </g>
</svg>