<?xml version="1.0" encoding="UTF-8"?>
<svg id="Calque_1" data-name="Calque 1" xmlns="http://www.w3.org/2000/svg" viewBox="0 0 171.76 181.06">
  <defs>
    <style>
      .cls-1 {
        fill: #ff4c00;
      }

      .cls-2 {
        fill: #333a45;
      }
    </style>
  </defs>
  <path class="cls-2" d="M44.73,16.96l-4.65,8.41c-10.5,1.73-28.35-4.78-31.4,9.75l-.09,98.27c.72,4.99,4.54,8.86,9.46,9.85,1.39-7.05.55-14.75,4.06-21.36,5.36-10.1,20.92-13.17,30.92-17.01,6.56-2.52,10.27-3.18,11.28-11.25-5.77-6.91-9.99-14.8-11.73-23.71-1.55,2.21-2.93,3.82-5.7,4.49-6.57,1.6-15.26-.91-16.12-8.61-.44-3.93-.66-13.51.55-16.99,1.42-4.08,4.96-6.23,9.07-6.85.18-8.38,3.18-16.84,7.98-23.67C61.11.18,87.11-4.6,106.76,4.49c14.47,6.7,23.95,21.56,24.6,37.46,3.93.64,7.79,2.91,9.07,6.85.9,2.75.91,15.87.08,18.67-1.92,6.51-8.43,7.67-14.38,7.07-2.42-.24-4.81-1.48-6.09-3.57-2.86,2.47-3.25,6.4-4.66,9.65-1.09,2.51-2.63,5.38-4.17,7.63-.76,1.11-3.56,3.98-3.8,4.8-.44,1.46,1.45,6.25,2.36,7.51,1.22,1.7,8.39,4.14,10.72,5.02,8.6,3.24,21.47,6,27.22,13.57,5.08,6.7,4.79,15.74,5.59,23.74.42.68,3.14-.56,3.78-.89,3.02-1.56,5.77-5.13,6.08-8.58l-.18-99.29c-1.22-4.77-5.47-8.16-10.38-8.58-6.8-.58-14.36.51-21.24-.05l-4.35-8.52h25.94c9.65,0,18.41,8.83,18.8,18.41l-.06,98.69c.59,6.44-9.4,17.75-15.52,17.75h-18.78v26.65c0,1.64-4.36,3.68-5.85,1.91-11.92-9.4-23.17-19.67-35.55-28.49l-78.99-.08c-9.03-1.11-16.09-8.73-17.01-17.69L.02,34.31c-.13-6.61,9.5-17.35,15.92-17.35h28.8ZM120.23,44.14l4.5-2.13c-2.21-25.4-26.71-40.49-50.93-33.37-12.33,3.62-22.06,13.58-25.58,25.93-.37,1.31-1.88,6.87-.98,7.61.23.19,4.13,2.14,4.29,1.96.57-14.61,10.44-27.26,24.61-31.02,21.82-5.78,42.59,8.49,44.09,31.02ZM111.62,42.73c-13.31.42-26.47-.98-38.01-7.96-1.36-.82-2.71-2.11-3.99-2.81-.31-.17-.55-.58-.93-.16-1.2,4.5-3.55,8.54-6.44,12.16-.92,1.15-4.83,4.8-5.17,5.56-.67,1.47.29,11.79.58,14.07,1.41,11.21,6.19,23.15,16.08,29.35s22.35,3.68,30.21-5.15c.45-.51,3.74-4.67,3.39-5.01-1.55.76-3.07,1.37-4.73,1.88-1.45.44-3.51.5-4.66,1.06-1.04.5-1.17,1.43-1.87,2.06-3.46,3.15-13.2,2.49-14.33-2.84-1.49-7.06,7.47-9.1,12.61-6.88,3.09,1.33,1.55,3.17,5.67,1.87,4.04-1.28,8.9-4.47,11.41-7.91,1.61-2.22,1.89-6.33,2.01-9.08.31-6.66-.64-13.69-1.82-20.21ZM101.98,98.16c-.46-.39-3.64,1.53-4.41,1.85-7.16,3-13.13,3.53-20.64,1.19-2.5-.78-4.7-2.17-7.15-3.04l-1.78,4.47,6.24,8.41,11.8,12.86c3.14-3.64,6.58-7.05,9.68-10.72,1.42-1.68,6.85-7.9,7.41-9.41.77-2.07-1.14-3.54-1.16-5.62ZM146.34,143.23c-1.03-5.12-.38-10.68-2.05-15.66-1.43-4.3-5.29-7.85-9.41-9.55l-25.94-9.84-.89.52-16.45,23.26c-.43.51-.98.77-1.63.87-1.56.24-6.25.22-7.86.03-.58-.07-1.13-.13-1.58-.56l-17.72-24-27.37,10.44c-9.9,4.89-9.27,14.93-9.67,24.5h74.24c8.73,6.02,16.08,13.8,24.34,20.38,1.29,1.03,2.88,2.62,4.46,2.87v-22c0-.09,1.16-1.25,1.25-1.25h16.28Z"/>
  <path class="cls-1" d="M146.34,143.23h-16.28c-.09,0-1.25,1.16-1.25,1.25v22c-1.58-.25-3.17-1.84-4.46-2.87-8.25-6.58-15.6-14.36-24.34-20.38H25.77c.4-9.57-.23-19.6,9.67-24.5l27.37-10.44,17.72,24c.45.43,1,.49,1.58.56,1.61.19,6.3.21,7.86-.03.65-.1,1.2-.37,1.63-.87l16.45-23.26.89-.52,25.94,9.84c4.13,1.7,7.98,5.25,9.41,9.55,1.66,4.98,1.02,10.54,2.05,15.66Z"/>
</svg>