<?xml version="1.0" encoding="UTF-8"?>
<svg id="Calque_1" data-name="Calque 1" xmlns="http://www.w3.org/2000/svg" viewBox="0 0 189.25 41">
  <g>
    <path d="M55.4,17.3c-.5.8-1.1,1.6-1.7,2.5-.6.8-1.1,1.6-1.7,2.5-.6.7-1.7,1.3-2.6,1.2h-.6c-.6,0-.9-.2-.9-.5,0-.1.1-.3.4-.7h0s.4-.5.9-1c0,0,.3-.2.3-.3.1,0,.1-.1.6-.8.7-.9,1.3-2,1.8-3-.3-1.1-.7-2.2-1.1-3.3-.4-1.1-.7-2.2-1-3.3,0-.1-.1-.4-.2-.5-.1-.4-.3-.9-.4-1-.2-.5-.4-1-.5-1.3-.2-.6.3-1.3,1.2-1.2h.8c1,0,1.7.6,1.9,1.3.1.3.2.8.4,1.4l1.5,4.9c.2-.3.4-.6.6-.8.1-.2.3-.5.4-.6,1.1-1.8,2.3-3.7,2.9-4.9.4-.7,1.3-1.2,2.3-1.2h.7c.6,0,1.2.5.9.9-.3.4-.8,1-1.3,1.8l-5.6,7.9ZM54.2,14.5q0,.1,0,0h0Z"/>
    <path d="M66.1,22.1c.9,0,1.6-.2,2.2-.5s1.3.1,1.2.6c-.2.5-.7,1.1-1.5,1.3-.6.1-1.4.2-2.4.2-4.2-.1-5.3-2.4-5.3-5.4,0-2.6,1.3-4.8,2.1-5.8,1.7-2.1,4-2.8,5.8-2.8,2.6,0,3.9,1.3,3.9,3,0,.7-.3,1.6-.9,2.4-.6.9-1.6,1.6-2.5,2-1.5.8-3.1.9-5,.9v.9c0,1.4.3,3.2,2.4,3.2ZM63.8,17.6c1.3-.2,2.7-1.1,3.9-2.2.6-.6,1-1.4,1-2.4s-.5-1.5-1.1-1.5c-.4,0-1.2.2-2.2,1.4-.7.8-1.4,2.6-1.6,4.7Z"/>
    <path d="M75.3,23.6c-2.7,0-3-1.7-2.9-2.9,0-.5.1-1,.2-1.4v-.1c0-.3.1-.5.1-.6s0-.3.1-.4v-.3c0-.1.1-.3.1-.5.1-.5.3-1.6.8-4.7.4-2.5.7-4.2.7-5,0-.6.3-1.3,1.2-1.3.2,0,.4-.1.8-.1.8-.2,1.6.4,1.6,1-.1.6-.3,1.3-.4,2.3,0,.2,0,.4-.1.6-.1.4-.2.8-.2,1.2-.2,1-.4,2.2-.6,3.2-.2,1.1-.4,2.2-.6,3.2v.3c0,.2-.1.6-.1.8v.2c-.1.8-.3,1.6-.1,2.1,0,0,.2.6.5.7.4,0,.6,0,.9-.2,0,0,.2,0,.2-.1.6-.2,1.2.3,1,.8-.2.6-.9.9-1.7,1.1-.7.1-1.1.1-1.5.1Z"/>
    <path d="M82.2,23.6c-2.7,0-3-1.7-2.9-2.9,0-.5.1-1,.2-1.4v-.1c0-.3.1-.5.1-.6s0-.3.1-.4v-.3c0-.1.1-.3.1-.5.1-.5.3-1.6.8-4.7.4-2.5.7-4.2.7-5,0-.6.3-1.3,1.2-1.3.2,0,.4-.1.8-.1.8-.2,1.6.4,1.6,1-.1.6-.3,1.3-.4,2.3,0,.2,0,.4-.1.6-.1.4-.2.8-.2,1.2-.2,1-.4,2.2-.6,3.2-.2,1.1-.4,2.2-.6,3.2v.3c0,.2-.1.6-.1.8v.2c-.1.8-.3,1.6-.1,2.1,0,0,.2.6.5.7.4,0,.6,0,.9-.2,0,0,.2,0,.2-.1.6-.2,1.2.3,1,.8-.2.6-.9.9-1.7,1.1-.7.1-1.1.1-1.5.1Z"/>
    <path d="M97.6,11.2c1.3,1.3,1.3,2.7,1.3,3.3,0,3.8-2.4,9.2-8,9.2-1.4,0-2.8-.4-3.7-1.2-.6-.6-1.5-1.6-1.5-3.8,0-3.9,2.6-8.8,8-8.8,1.8.1,3.1.5,3.9,1.3ZM94.9,12.2c-.3-.3-.8-.6-1.5-.6-3.5,0-4.3,5.6-4.3,7.5,0,2.3,1,3.1,2.1,3.1,3.8,0,4.4-6.5,4.4-7.7-.1-.7-.1-1.7-.7-2.3Z"/>
    <path d="M116.8,11.4c-.2.3-.4.7-.5,1-.1.1-.1.3-.2.5l-.1.2c-1,2.2-2.9,6.5-3.9,8.6h0l-.1.1-.1.1v.2c-.3.8-1.3,1.3-2.3,1.3h-.2c-1,0-1.9-.6-1.9-1.4,0-1.8-.1-2.9-.2-4.8-.3.7-.6,1.5-.8,2.2-.5,1.3-.8,2-1.1,2.7-.3.8-1.3,1.2-2.3,1.2h-.2c-.9,0-1.8-.6-1.8-1.4v-3.1l-.3-4.6c-.1-1.4-.1-2.1-.3-2.7-.1-.7.6-1.4,1.5-1.4h.2c.9,0,1.8.6,1.7,1.3v7.6h0c.1-.1.2-.4.2-.5.1-.2.2-.4.2-.5l1.5-3.5c.3-.6.5-1,.6-1.5,0,0,0-.1.1-.2h0c.3-.8,1.2-1.2,2.2-1.2,1.1,0,1.3,3,1.4,6v1.8c.3-.8.6-1.5.9-2.3.5-1.1.9-2.2,1.3-3.2.3-.8.6-1.9.8-2.5h0c.2-.8,1.2-1.3,2.2-1.3,1.2.2,1.7.8,1.5,1.3Z"/>
    <path d="M134.7,6c.4,0,1.3,0,2.4.3.8.2,1.3.9,1,1.5-.2.5-.7.7-1.3.7-.3,0-.6-.1-.9-.2-.4-.2-1-.4-1.9-.4-4.8,0-6.7,5-6.7,9,0,3,1.3,5.2,4.5,5.2.7,0,1.3-.1,2.2-.4.1,0,.3-.1.4-.2.7-.2,1.5,0,1.3.6-.3.8-1.1,1.5-2.3,1.6-.6.1-1.4.1-2.3.1-2.7,0-5.1-.7-6.4-2.6-.7-1.1-1.1-2.5-1.1-4.1.1-4.5,2.4-11.1,11.1-11.1Z"/>
    <path d="M147.9,10.3c.9-.3,1.6.4,1.5,1.1-.2.8-.4,2-.8,4.3l-.4,2.4c-.3,2-.5,3.7-.5,4.4,0,.6-.8,1-1.6,1.1-.8,0-1.6-.5-1.5-1.1,0-.4.1-1,.2-1.5-1,1.4-2.3,2.8-4.2,2.8-2,0-4-1.3-4-4.1,0-1.1.7-5.5,4.2-8.3.6-.4,2-1.4,4.2-1.4,1.1,0,1.9.2,2.6.5l.3-.2ZM146.1,11.9c-.4-.1-1-.3-1.5-.3-3.7,0-4.6,5.2-4.6,7.2,0,1.6.5,2.8,1.7,2.8.7,0,1.6-.4,2.4-1.6.7-.9,1.1-2.3,1.5-4.7l.5-3.4Z"/>
    <path d="M160.1,10.1c.8.2,1,.9.8,1.4-.1.4-.6.5-1.1.5-.3,0-.6,0-.8-.1h0c-.3-.1-.6-.2-1-.2-3,0-4.7,3.2-4.7,6.5,0,1.2.2,2.6,1.3,3.3.6.4,1.2.6,1.8.6.5,0,1-.1,1.5-.3.7-.2,1.2.3,1,.8-.2.6-.9,1-1.7,1.1-.4,0-.8.1-1.3.1-3.8,0-6.1-2.1-6.1-5.4,0-3.8,2.8-8.4,8.6-8.4.7,0,1.3,0,1.7.1Z"/>
    <path d="M165.4,10h1.2c.7-.1,1.3.4,1.2.9s-.8.9-1.6.9h-1.2c0,.1,0,.2-.1.3-.1.6-.3,1.3-.4,2-.1.7-.3,1.4-.4,2-.1.6-.2,1.1-.3,1.4-.3,1.3-.5,2.3-.5,3,0,.9.4,1.3.9,1.3.1,0,.3,0,.5-.1.7-.1,1.3.3,1.2.7-.1.6-.8,1.1-1.6,1.3h-.6c-1.6,0-2.7-.5-3-1-.4-.5-.6-1-.6-1.5s.1-1,.2-1.7l1.5-8c-.5-.1-.9-.4-.8-.8.1-.5.5-.9,1.2-.9.1-.6.2-1.1.2-1.6.1-.8.8-1.5,1.8-1.7.8-.2,1.7.3,1.6.9-.1,1-.3,1.5-.4,2.6h0Z"/>
    <path d="M170.8,17.7c-.3,1.2-.4,1.8-.4,2.3,0,.9.3,1.6,1.3,1.6.4,0,1.7-.2,2.7-1.8h0c.5-.9,1.1-3.1,1.4-5,.3-1.4.4-2.3.4-3s.6-1.4,1.5-1.5h.2c.1-.1.3-.1.5-.1.8-.1,1.6.4,1.5,1-.3,1.2-.7,2.8-1.1,5-.6,3.3-.8,5-.8,5.9v.2c0,.7-.8,1.2-1.6,1.2-.9,0-1.7-.6-1.7-1.3v-.3c-.3.4-.6.8-1,1.1-1.1.7-2.6.8-3,.8-1.8,0-3.5-.9-3.5-2.6,0-.3,0-.7.2-1.6l1.2-6.4c.1-.5.1-.8.2-1.1,0-.6.4-1.4,1.4-1.5h.6c.8-.1,1.7.5,1.5,1.1-.2,1-.4,1.4-.5,2.2,0,.1-.1.3-.1.4l-.9,3.4Z"/>
    <path d="M182.5,17.4c-.8-.4-2.2-1.3-2.2-2.9,0-1.3.9-2.5,2.1-3.5,1.2-.9,3.1-1.1,4.1-1.1.7,0,1.2,0,1.7.2h0c.8.2,1.2.9,1,1.4-.2.4-.7.6-1.2.6-.3,0-.6,0-.8-.2h0c-.4-.2-.8-.3-1.2-.3-1.5,0-2.4,1.2-2.4,2.1,0,1.1.8,1.6,1.6,2l1.2.8c.8.5,2,1.2,2,2.6,0,1-.5,2.4-2.1,3.5-1.4,1-3.2,1.1-4.3,1.1-.7,0-1.3-.1-1.8-.2-.8-.2-1.4-.8-1.3-1.4.3-.8,1.3-1.1,2-.7h0c.5.2,1,.4,1.9.4,1.6,0,2.4-1,2.4-2,0-.9-.6-1.3-1.2-1.7l-1.5-.7Z"/>
  </g>
  <g>
    <path d="M51,29.7h1v6.9h-1v-6.9Z"/>
    <path d="M54.7,31.5c.2-.1.5-.1.9-.2.4-.1.8-.1,1.2-.1s.8.1,1,.2c.3.1.5.3.7.5s.3.5.3.8c.1.3.1.6.1,1v2.9h-.9v-2.7c0-.3,0-.6-.1-.8s-.1-.4-.2-.5c-.1-.1-.2-.2-.4-.3s-.4-.1-.6-.1h-1.1v4.4h-.9v-5.1Z"/>
    <path d="M62.3,31.4h2v.8h-2v2.4c0,.3,0,.5.1.6s.1.3.2.4.2.2.3.2.3.1.4.1c.3,0,.5,0,.7-.1s.3-.1.4-.1l.2.8c-.1,0-.3.1-.5.2s-.5.1-.8.1c-.4,0-.6,0-.9-.1s-.4-.2-.6-.4c-.1-.2-.2-.4-.3-.7-.1-.3-.1-.6-.1-.9v-4.8l.9-.2s0,1.7,0,1.7Z"/>
    <path d="M66.1,34c0-.5.1-.9.2-1.2s.3-.6.5-.9c.2-.2.5-.4.8-.5s.6-.2.9-.2c.7,0,1.2.2,1.6.7.4.4.6,1.1.6,2v.4h-3.6c0,.5.2,1,.5,1.2.3.3.7.4,1.3.4.3,0,.6,0,.8-.1.2-.1.4-.1.5-.2l.1.8c-.1.1-.3.1-.6.2-.3.1-.6.1-1,.1-.5,0-.8-.1-1.2-.2s-.5-.3-.7-.6-.4-.5-.5-.9c-.1-.2-.2-.6-.2-1ZM69.7,33.5c0-.4-.1-.8-.3-1-.2-.3-.5-.4-.9-.4-.2,0-.4,0-.6.1s-.3.2-.4.3-.2.3-.3.5c-.1.2-.1.3-.1.5,0,0,2.6,0,2.6,0Z"/>
    <path d="M75,31.3h1.1l-.2.8c-.1,0-.2-.1-.4-.1s-.4-.1-.7-.1c-.2,0-.3,0-.5.1-.2,0-.3.1-.3.1v4.4h-1v-5c.2-.1.5-.2.8-.2h1.2Z"/>
    <path d="M77.9,31.5c.2-.1.5-.1.9-.2.4-.1.8-.1,1.2-.1s.8.1,1,.2c.3.1.5.3.7.5s.3.5.3.8c.1.3.1.6.1,1v2.9h-.9v-2.7c0-.3,0-.6-.1-.8s-.1-.4-.2-.5-.2-.2-.4-.3c-.2-.1-.4-.1-.6-.1h-1.1v4.4h-.9s0-5.1,0-5.1Z"/>
    <path d="M84.4,34c0-.5.1-.9.2-1.2s.3-.6.5-.9c.2-.2.5-.4.8-.5s.6-.2.9-.2c.7,0,1.2.2,1.6.7.4.4.6,1.1.6,2v.4h-3.6c0,.5.2,1,.5,1.2.3.3.7.4,1.3.4.3,0,.6,0,.8-.1.2-.1.4-.1.5-.2l.1.8c-.1.1-.3.1-.6.2-.3.1-.6.1-1,.1-.5,0-.8-.1-1.2-.2s-.5-.3-.8-.6-.4-.5-.5-.9c0-.2-.1-.6-.1-1ZM88,33.5c0-.4-.1-.8-.3-1-.2-.3-.5-.4-.9-.4-.2,0-.4,0-.6.1s-.3.2-.4.3-.2.3-.3.5c-.1.2-.1.3-.1.5,0,0,2.6,0,2.6,0Z"/>
    <path d="M92.2,31.4h2v.8h-2v2.4c0,.3,0,.5.1.6s.1.3.2.4.2.2.3.2.2.1.3.1c.3,0,.5,0,.7-.1s.3-.1.4-.1l.2.8c-.1,0-.3.1-.5.2s-.5.1-.8.1c-.4,0-.6,0-.9-.1s-.4-.2-.6-.4c-.1-.2-.2-.4-.3-.7-.1-.3-.1-.6-.1-.9v-4.8l.9-.2v1.7h.1Z"/>
    <path d="M102,36.7c-.4,0-.8-.1-1.1-.2-.3-.1-.6-.3-.8-.6-.2-.2-.4-.5-.5-.9s-.2-.7-.2-1.1.1-.8.2-1.1.3-.6.5-.9c.2-.2.5-.4.8-.6s.7-.2,1-.2c.2,0,.5,0,.7.1s.5.1.7.2l-.2.8c-.1-.1-.3-.1-.5-.2-.2,0-.4-.1-.6-.1-.5,0-.9.2-1.2.5-.3.3-.4.8-.4,1.4,0,.3,0,.5.1.8.1.2.2.4.3.6.1.2.3.3.5.4s.5.1.8.1c.2,0,.5,0,.7-.1.2,0,.4-.1.5-.1l.1.8c-.1,0-.1.1-.2.1s-.2.1-.3.1-.3,0-.4.1c-.3.1-.4.1-.5.1Z"/>
    <path d="M107.3,31.3h1.1l-.2.8c-.1,0-.2-.1-.4-.1s-.4-.1-.7-.1c-.2,0-.3,0-.5.1-.2,0-.3.1-.3.1v4.4h-.9v-5c.2-.1.5-.2.8-.2h1.1Z"/>
    <path d="M110,34c0-.5.1-.9.2-1.2s.3-.6.5-.9c.2-.2.5-.4.8-.5s.6-.2.9-.2c.7,0,1.2.2,1.6.7.4.4.6,1.1.6,2v.4h-3.6c0,.5.2,1,.5,1.2s.7.4,1.3.4c.3,0,.6,0,.8-.1.2-.1.4-.1.5-.2l.1.8c-.1.1-.3.1-.6.2-.3.1-.6.1-1,.1-.5,0-.8-.1-1.2-.2s-.6-.3-.8-.6-.4-.5-.5-.9c-.1-.2-.1-.6-.1-1ZM113.6,33.5c0-.4-.1-.8-.3-1-.2-.3-.5-.4-.9-.4-.2,0-.4,0-.6.1s-.3.2-.4.3-.2.3-.3.5c-.1.2-.1.3-.1.5,0,0,2.6,0,2.6,0Z"/>
    <path d="M118.6,31.3c.4,0,.7,0,.9.1s.5.2.6.4.3.4.3.6c.1.2.1.5.1.8v3.2c-.1,0-.2,0-.3.1-.1,0-.3,0-.5.1-.2,0-.4,0-.6.1s-.4,0-.6,0c-.3,0-.6,0-.8-.1-.2-.1-.5-.2-.6-.3-.2-.1-.3-.3-.4-.5s-.2-.5-.2-.8.1-.5.2-.7.3-.4.5-.5.4-.2.7-.3c.3-.1.5-.1.8-.1h.9v-.3c0-.2,0-.3-.1-.5,0-.2-.1-.3-.2-.4-.1-.1-.2-.2-.4-.3-.1-.1-.3-.1-.6-.1s-.6,0-.8.1c-.2,0-.4.1-.5.1l-.1-.8c.1-.1.3-.1.6-.2.4.3.7.3,1.1.3ZM118.7,35.9h.6c.2,0,.3,0,.4-.1v-1.5c-.1,0-.2-.1-.3-.1h-.9c-.2,0-.3.1-.4.1s-.2.1-.3.3c-.1.1-.1.3-.1.4,0,.3.1.6.3.7,0,.2.3.2.7.2Z"/>
    <path d="M124,31.4h2v.8h-2v2.4c0,.3,0,.5.1.6,0,.2.1.3.2.4s.2.2.3.2.3.1.4.1c.3,0,.5,0,.7-.1s.3-.1.4-.1l.2.8c-.1,0-.3.1-.5.2-.2.1-.5.1-.8.1-.4,0-.6,0-.9-.1s-.4-.2-.6-.4c-.1-.2-.2-.4-.3-.7s-.1-.6-.1-.9v-4.8l.9-.2v1.7h0Z"/>
    <path d="M128.7,30.5c-.2,0-.3-.1-.4-.2-.1-.1-.2-.3-.2-.4s.1-.3.2-.4.3-.2.4-.2.3.1.4.2c.1.1.2.3.2.4s-.1.3-.2.4-.3.2-.4.2ZM129.1,36.6h-.9v-5.2h.9v5.2Z"/>
    <path d="M135.8,31.4c-.3,1-.6,1.9-.9,2.8s-.7,1.7-1,2.4h-.9c-.3-.7-.7-1.5-1-2.4-.4-.9-.7-1.8-.9-2.8h1c.1.3.2.7.3,1,.1.4.2.7.3,1.1.1.4.2.7.4,1.1.1.3.2.6.4.9.1-.3.2-.6.4-.9s.3-.7.4-1.1c.1-.4.2-.7.3-1.1.1-.4.2-.7.3-1h.9Z"/>
    <path d="M137.4,34c0-.5.1-.9.2-1.2.1-.3.3-.6.5-.9.2-.2.5-.4.8-.5s.6-.2.9-.2c.7,0,1.2.2,1.6.7s.6,1.1.6,2v.4h-3.6c0,.5.2,1,.5,1.2.3.3.7.4,1.3.4.3,0,.6,0,.8-.1s.4-.1.5-.2l.1.8c-.1.1-.3.1-.6.2s-.6.1-1,.1c-.5,0-.8-.1-1.2-.2s-.6-.3-.8-.6-.4-.5-.5-.9c-.1-.2-.1-.6-.1-1ZM140.9,33.5c0-.4-.1-.8-.3-1-.2-.3-.5-.4-.9-.4-.2,0-.4,0-.6.1s-.3.2-.4.3c-.1.1-.2.3-.3.5s-.1.3-.1.5c0,0,2.6,0,2.6,0Z"/>
    <path d="M149.7,28.8c.3,0,.5,0,.7.1.2,0,.3.1.4.1l-.2.8c-.1,0-.2-.1-.3-.1s-.3-.1-.5-.1c-.4,0-.7.1-.9.4-.2.2-.3.6-.3,1v.5h2v.8h-2v4.4h-.9v-5.8c0-.7.2-1.2.5-1.5.2-.4.8-.6,1.5-.6Z"/>
    <path d="M154.2,31.3c.4,0,.7,0,.9.1.3.1.5.2.6.4.2.2.3.4.3.6.1.2.1.5.1.8v3.2c-.1,0-.2,0-.3.1s-.3,0-.5.1c-.2,0-.4,0-.6.1h-.6c-.3,0-.6,0-.8-.1s-.5-.2-.6-.3c-.2-.1-.3-.3-.4-.5-.1-.2-.1-.5-.1-.8s.1-.5.2-.7c.1-.2.3-.4.5-.5s.4-.2.7-.3.5-.1.8-.1h.9v-.8c0-.2-.1-.3-.2-.4-.1-.1-.2-.2-.4-.3-.1-.1-.3-.1-.6-.1s-.6,0-.8.1c-.2,0-.4.1-.5.1l-.1-.8c.1-.1.3-.1.6-.2.3.3.6.3.9.3ZM154.3,35.9h.6c.2,0,.3,0,.4-.1v-1.5c-.1,0-.2-.1-.3-.1h-.9c-.2,0-.3.1-.4.1-.1.1-.2.1-.3.3-.1.1-.1.3-.1.4,0,.3.1.6.3.7s.3.2.7.2Z"/>
    <path d="M161,36.7c-.4,0-.8-.1-1.1-.2-.3-.1-.6-.3-.8-.6-.2-.2-.4-.5-.5-.9-.1-.3-.2-.7-.2-1.1s.1-.8.2-1.1c.1-.3.3-.6.5-.9.2-.2.5-.4.8-.6.3-.1.7-.2,1-.2.2,0,.5,0,.7.1.2,0,.5.1.7.2l-.2.8c-.1-.1-.3-.1-.5-.2s-.4-.1-.6-.1c-.5,0-.9.2-1.2.5s-.4.8-.4,1.4c0,.3,0,.5.1.8.1.2.2.4.3.6.1.2.3.3.5.4s.5.1.8.1c.2,0,.5,0,.7-.1.2,0,.4-.1.5-.1l.1.8c-.1,0-.1.1-.2.1s-.2.1-.3.1-.3,0-.4.1-.3.1-.5.1Z"/>
    <path d="M165.3,31.4h2v.8h-2v2.4c0,.3,0,.5.1.6s.1.3.2.4.2.2.3.2.3.1.4.1c.3,0,.5,0,.7-.1s.3-.1.4-.1l.2.8c-.1,0-.3.1-.5.2s-.5.1-.8.1c-.4,0-.6,0-.9-.1-.2-.1-.4-.2-.6-.4-.1-.2-.2-.4-.3-.7s-.1-.6-.1-.9v-4.8l.9-.2v1.7h0Z"/>
    <path d="M173.9,34c0,.4-.1.8-.2,1.1-.1.3-.3.6-.5.9s-.5.4-.8.6c-.3.1-.6.2-1,.2s-.7-.1-1-.2c-.3-.1-.6-.3-.8-.6s-.4-.5-.5-.9c-.1-.3-.2-.7-.2-1.1s.1-.8.2-1.1c.1-.3.3-.6.5-.9s.5-.4.8-.6c.3-.1.6-.2,1-.2s.7.1,1,.2c.3.1.6.3.8.6s.4.5.5.9c.2.3.2.7.2,1.1ZM173,34c0-.6-.1-1.1-.4-1.4s-.6-.5-1.1-.5-.8.2-1.1.5-.4.8-.4,1.4.1,1.1.4,1.4.6.5,1.1.5.8-.2,1.1-.5.4-.8.4-1.4Z"/>
    <path d="M178.2,31.3h1.1l-.2.8c-.1,0-.2-.1-.4-.1s-.4-.1-.7-.1c-.2,0-.3,0-.5.1-.2,0-.3.1-.3.1v4.4h-.9v-5c.2-.1.5-.2.8-.2h1.1Z"/>
    <path d="M180.8,37.6c.1,0,.2.1.3.1h.3c.4,0,.7-.1.9-.2.2-.2.4-.4.6-.8-.4-.8-.8-1.6-1.2-2.5s-.7-1.8-.9-2.7h1c.1.3.2.6.3,1s.2.7.3,1.1c.1.4.3.7.4,1.1.1.4.3.7.5,1.1.3-.7.5-1.4.7-2.1.2-.7.4-1.4.5-2.1h1c-.2,1-.5,1.9-.8,2.8s-.6,1.7-.9,2.5c-.1.3-.3.6-.4.8-.1.2-.3.4-.5.5s-.4.2-.6.3c-.2.1-.5.1-.7.1h-.4q-.1,0-.2-.1h-.1l-.1-.9Z"/>
  </g>
  <path d="M32.5,0H0v32.5c0,4.7,3.8,8.5,8.5,8.5h7c0-3.5.2-7,.5-10.6v-.5h-.5c-8.8-1.4-9.5-13.7-9.8-19.6-.1-1.1.8-2,1.1-2.3h.1c.6-.4,1.2-.6,1.9-.6,1.9,0,3.3,1.6,3.9,3.2.4,1.3.5,2,.5,3.1,0,.7.1,1.5.3,2.8.4,3,1.4,3.3,2.5,3.3h.7l-.1-.5c-.2-1.4-.3-2.5-.4-3.6-.3-3.2-.6-5.5-1.6-9.8v-.2c.5-1,2.9-2.4,5.5-2.4.9,0,1.7.2,2.5.5,2.7,1.3,2.8,3.1,2.9,3.9v.3c.3,3,.3,4.1.3,6.2v2.6l.4.1c2.1.5,2.7.6,2.9-.9,0-.8-.1-1.6-.2-2.4-.1-1.2-.3-2.4-.1-3.6.2-.8.9-3.3,3.2-2.9h.1c2.2.9,2.8,3.1,3.1,5,.6,5.5-.2,9.5-2.4,11.9-1.9,2.1-4.2,2.4-5.5,2.4-.5,0-1,0-1.4-.1l-.7-.4-.1.5c-1,5.3-1.4,9.8-1.4,14.6h8.8c4.7,0,8.5-3.8,8.5-8.5V8.5c0-4.7-3.8-8.5-8.5-8.5Z"/>
</svg>