<svg preserveAspectRatio="xMidYMid meet" data-bbox="132.73 140.86 1232.522 616.051" viewBox="0 0 1500 900" xmlns="http://www.w3.org/2000/svg" data-type="ugc" role="presentation" aria-hidden="true" aria-label="">
    <g>
        <path d="m392.72 520.73-118.99 43.61 115.59-51.96c5.7-2.33 9.13 6.02 3.4 8.35z"></path>
        <path d="m395.09 349.62.44 167.04a4.505 4.505 0 0 1-4.5 4.52 4.505 4.505 0 0 1-4.52-4.5c-.04-.15 8.58-166.86 8.58-167.06z"></path>
        <path d="m392.01 512.16 131.55 34.33-133.54-25.53c-6-1.39-4.05-10.13 1.99-8.8z"></path>
        <path d="M760.47 140.86h88.43a7.75 7.75 0 0 1 7.75 7.75v344.07h125.33a7.75 7.75 0 0 1 6.52 3.56l46.49 72.31c3.47 5.15-.22 12.08-6.42 12.08H768.22c-8.56 0-15.5-6.94-15.5-15.5V148.61a7.75 7.75 0 0 1 7.75-7.75z"></path>
        <path d="M1080.07 580.61a7.75 7.75 0 0 1-6.52-3.56l-46.49-72.29c-3.49-5.14.2-12.1 6.41-12.1h184.16c8.37 0 15.91-2.09 22.61-6.28 6.7-4.18 12.03-9.63 16.02-16.34 3.98-6.69 5.97-14.02 5.97-21.99 0-8.37-1.99-15.91-5.97-22.61-3.99-6.7-9.32-12.14-16.02-16.34-6.7-4.18-14.24-6.28-22.61-6.28h-67.85c-25.55 0-48.79-5.02-69.73-15.07-20.95-10.05-37.59-24.81-49.94-44.29-12.36-19.47-18.53-42.82-18.53-70.04 0-26.79 5.86-50.04 17.59-69.73 11.72-19.68 27.64-35.07 47.74-46.17 20.1-11.09 42.29-16.65 66.59-16.65h139.97c2.63 0 5.09 1.34 6.51 3.55l46.57 72.33c3.45 5.15-.24 12.06-6.44 12.06h-174.68c-7.54 0-14.45 1.88-20.73 5.65-6.28 3.77-11.1 8.79-14.45 15.07-3.36 6.28-5.03 13.19-5.03 20.73 0 7.54 1.67 14.35 5.03 20.42 3.35 6.07 8.17 10.99 14.45 14.76 6.28 3.77 13.19 5.65 20.73 5.65h70.99c28.05 0 52.45 5.34 73.18 16.02s36.85 25.55 48.37 44.6c11.52 19.06 17.28 41.36 17.28 66.9 0 30.15-5.97 55.81-17.9 76.95-11.94 21.15-27.95 37.28-48.06 48.37-20.1 11.1-42.31 16.65-66.59 16.65h-152.63z"></path>
        <path d="M1118.53 693.56c-.18 8.31-1.17 16.47-3.76 24.4-2.57 7.9-6.43 15.08-12.08 21.22-6.82 7.42-15.14 12.45-24.84 15.19-4.23 1.19-8.54 1.98-12.93 2.22-2.68.15-5.38.34-8.06.29-8.77-.17-17.33-1.48-25.42-5.07-11.35-5.03-19.91-13.06-25.7-24.03-3.34-6.34-5.44-13.09-6.58-20.15-.61-3.8-1-7.62-1.02-11.47-.01-1.19-.14-2.39-.11-3.58.21-9.68 1.62-19.14 5.35-28.16 2.76-6.67 6.52-12.69 11.6-17.85 5.17-5.25 11.2-9.26 18.06-11.98 5-1.98 10.19-3.2 15.53-3.83 3.97-.47 7.95-.68 11.93-.56 7.82.24 15.46 1.43 22.78 4.34 6.25 2.49 11.83 6.02 16.72 10.63 7.19 6.77 11.92 15.05 14.9 24.38 1.44 4.5 2.43 9.1 2.86 13.8.33 3.4.52 6.81.77 10.21zm-21.51-.2c.11-3.63-.19-7.49-.79-11.33-.86-5.48-2.42-10.73-5.01-15.66-3.2-6.09-7.67-10.97-13.68-14.39-4.71-2.67-9.82-4.02-15.18-4.41-4.18-.3-8.36-.21-12.51.56-5.31.99-10.2 2.94-14.53 6.2-5.42 4.09-9.2 9.42-11.79 15.65-2.7 6.48-3.84 13.29-4.11 20.26-.1 2.61-.03 5.25.13 7.86.16 2.61.4 5.22.82 7.8.92 5.71 2.69 11.15 5.61 16.18 4.66 8.03 11.33 13.57 20.34 16.06 7.1 1.97 14.31 2.07 21.51.58 8.06-1.67 14.64-5.79 19.72-12.26 3.45-4.4 5.75-9.38 7.25-14.74 1.65-5.93 2.35-11.97 2.22-18.36z"></path>
        <path d="M949.02 715.83c10.07 12.94 20.12 25.86 30.32 38.96h-1.15c-7.12 0-14.24-.01-21.35.02-.72 0-1.13-.23-1.54-.81-7.78-10.73-15.57-21.45-23.37-32.17-.21-.29-.44-.58-.65-.86-8.76.6-17.5.21-26.23.32h-1.26v33.32c-.8.21-19.15.27-20.53.08V632.37c.29-.03.58-.07.86-.07 15.8 0 31.6-.05 47.4.02 5.9.02 11.73.73 17.4 2.44 5.18 1.56 9.94 3.93 14.08 7.45 5.16 4.39 8.55 9.92 10.45 16.39.94 3.19 1.53 6.45 1.64 9.78.07 2.12.21 4.25.11 6.36-.49 11.12-4.02 21.11-11.38 29.6-3.52 4.06-7.73 7.28-12.37 9.95l-2.25 1.29c-.06.04-.08.11-.18.25zm-45.22-11.27h1.21c6.82 0 13.63.02 20.45-.02 1.65-.01 3.32-.12 4.96-.38 9.72-1.51 16.48-6.93 20.52-15.79 1.71-3.74 2.63-7.7 2.99-11.8.32-3.59.26-7.15-.45-10.69-1.37-6.77-5.21-11.56-11.53-14.38-3.64-1.63-7.49-2.31-11.43-2.34-8.61-.07-17.23-.02-25.84-.02-.29 0-.57.04-.88.06v55.36z"></path>
        <path d="M1165.83 632.37v1.34c0 24.59-.01 49.17.01 73.76 0 5.02.41 10 1.81 14.85.77 2.66 1.83 5.19 3.37 7.51 2.82 4.26 6.79 6.94 11.63 8.4 3.14.95 6.35 1.37 9.62 1.42 3.27.05 6.51-.1 9.71-.81 3.52-.78 6.78-2.11 9.65-4.32 3.57-2.75 5.84-6.39 7.33-10.58 1.08-3.05 1.68-6.2 2.03-9.4.29-2.71.38-5.42.38-8.14.01-24.22 0-48.44 0-72.66v-1.44c.85 0 19.61-.04 20.7-.04v1.14c0 25.48.08 50.97-.05 76.45-.04 8-1.43 15.84-4.67 23.25-4.57 10.44-12.36 17.33-23.16 20.87-4.54 1.48-9.2 2.36-13.96 2.63-2.72.16-5.44.34-8.16.29-7-.13-13.91-.91-20.57-3.24-5.51-1.93-10.43-4.8-14.46-9.07-3.78-4-6.43-8.68-8.28-13.83a55.271 55.271 0 0 1-2.87-12.17c-.28-2.33-.45-4.68-.61-7.02-.1-1.45-.13-2.91-.13-4.37-.01-24.49-.01-48.97-.01-73.46v-1.34c6.92-.02 13.75-.02 20.69-.02z"></path>
        <path d="M1295.96 754.77h-20.39c-.21-.72-.27-121.06-.06-122.41.3-.02.63-.05.95-.05 15.43 0 30.87-.04 46.3.02 6.17.02 12.26.76 18.17 2.65 5.33 1.7 10.15 4.27 14.24 8.13 3.99 3.76 6.68 8.31 8.27 13.52.9 2.96 1.51 5.98 1.63 9.07.11 2.62.28 5.25.11 7.85-.58 8.92-2.97 17.29-7.92 24.84-4.73 7.22-11.16 12.38-19.1 15.72-4.75 2-9.72 3.1-14.84 3.62-3.11.31-6.23.4-9.35.39-5.59-.01-11.18 0-16.77 0h-1.21c-.09 3.09-.03 6.13-.04 9.17-.01 3.06 0 6.11 0 9.17v9.07c.01 3.04.01 6.09.01 9.24zm.08-105.63v52.63h1.16c6.02 0 12.04-.01 18.06 0 2.4.01 4.78-.16 7.14-.6 9.56-1.82 16.11-7.29 19.68-16.31 1.3-3.29 1.99-6.72 2.29-10.25.3-3.59.28-7.15-.48-10.68-1.18-5.43-4.18-9.44-9.19-11.95-4.01-2.01-8.3-2.78-12.72-2.82-8.28-.06-16.56-.02-24.84-.02h-1.1z"></path>
        <path d="M831.52 737.7v-42.94h19.14v1.02c0 17.97-.01 35.95.02 53.92 0 .78-.31 1.08-.97 1.36-4.56 1.9-9.29 3.17-14.12 4.13-3.36.67-6.75 1.11-10.16 1.36-1.65.12-3.31.19-4.97.25-1.83.06-3.65.14-5.48.1-8-.18-15.89-1.07-23.56-3.48-7.89-2.48-14.92-6.45-20.99-12.07-4.84-4.48-8.56-9.78-11.33-15.75-2.76-5.94-4.51-12.18-5.44-18.65-.45-3.12-.78-6.24-.81-9.4-.02-1.86-.16-3.71-.11-5.57.29-10.42 2.2-20.48 6.96-29.86 4.19-8.25 10.07-15.02 17.7-20.28 6.93-4.78 14.57-7.88 22.78-9.64 3.97-.85 7.98-1.39 12.02-1.69 3.52-.26 7.04-.38 10.56-.29 7.32.2 14.58.92 21.61 3.16.85.27 1.69.61 2.53.9.39.14.57.36.57.81-.02 5.68-.02 11.36-.03 17.04 0 .03-.02.06-.05.18-.2-.04-.42-.04-.61-.12-5.79-2.37-11.82-3.77-18.03-4.41-4.04-.42-8.09-.41-12.15-.23-5.5.25-10.89 1.15-16.1 2.99-7.43 2.62-13.67 6.9-18.33 13.33-3.24 4.48-5.28 9.5-6.53 14.85-.79 3.36-1.33 6.76-1.43 10.22-.09 2.95-.23 5.9-.11 8.85.29 7.11 1.5 14.03 4.52 20.55 1.89 4.08 4.36 7.75 7.56 10.92 3.86 3.83 8.42 6.56 13.54 8.38 4.35 1.55 8.83 2.38 13.44 2.64 3.22.18 6.44.18 9.65-.21 2.85-.35 5.61-1.07 8.28-2.11.12-.09.23-.16.43-.26z"></path>
        <path fill="#83d7fc" d="m173.46 607.07 226.78-404.45-1.34-55.75-266.17 474.82 40.73-14.62z"></path>
        <path fill="#ffd363" d="m402.88 146.87 1.39 55.41 237.94 369.8 36.96 4.89-276.29-430.1z"></path>
        <path fill="#6c4cdb" d="m134.3 632.11 43.05-15.23 302.69 105.31 7.14 32.83L134.3 632.11z"></path>
        <linearGradient y2="667.804" x2="677.233" y1="667.804" x1="490.428" gradientUnits="userSpaceOnUse" id="aca5e663-1a4d-4bbe-be5e-bbb55cce5ede_comp-m0dt4t9u_r_comp-ly4kokyp">
            <stop offset="0" stop-color="#fe9a9c"></stop>
            <stop offset="1" stop-color="#fe9a9c"></stop>
        </linearGradient>
        <path fill="url(#aca5e663-1a4d-4bbe-be5e-bbb55cce5ede_comp-m0dt4t9u_r_comp-ly4kokyp)" d="m640.27 582.38 36.96 4.89-179.74 165.96-7.06-32.49 149.84-138.36z"></path>
    </g>
</svg>