<?xml version="1.0" encoding="UTF-8"?>
<svg id="Calque_1" xmlns="http://www.w3.org/2000/svg" version="1.1" viewBox="0 0 86.99 48.23">
  <!-- Generator: Adobe Illustrator 29.8.1, SVG Export Plug-In . SVG Version: 2.1.1 Build 2)  -->
  <defs>
    <style>
      .st0 {
        fill: #fd5108;
      }
    </style>
  </defs>
  <path d="M59.13,22.02c-2.5.4-3.7,2.2-3.7,5.4s1.7,5.4,4.2,5.4,2.3-.4,4.6-1.5v2.6c-2.7,1.3-4.3,1.6-6.6,1.6s-4.1-.6-5.4-2c-1.4-1.4-2.1-3.3-2.1-5.3,0-4.6,3.4-7.7,8.4-7.7s5.6,1.5,5.6,3.7-1.1,2.4-2.6,2.4-1.5-.2-2.3-.7v-3.9h-.1ZM47.03,28.12c2.2-2.8,3-3.9,3-5.3s-1.1-2.5-2.5-2.5-1.7.4-2.1.9v5.7l-3.6,4.8v-11h-3.4l-5.7,9.5v-9.5h-2l-5.2,1.3v1.3l2.8.3v11.6h3.7l5.5-9v9h4l5.6-7.1h-.1ZM14.63,23.72c.8,0,1.3-.2,1.7-.2,2.4,0,3.7,1.6,3.7,4.6s-1.6,5.4-4.5,5.4-.4,0-.8,0v-9.7l-.1-.1ZM14.63,35.12h2.4c4.9,0,8-3.1,8-7.8s-2.3-6.9-5.5-6.9-2.3.3-4.9,1.9v-1.9h-1.5l-5.7,1.7v1.4h2.4v16.2l-2.1.5v1.3h9.3v-1.3l-2.4-.5v-4.7.1Z"/>
  <path class="st0" d="M56.53,16.52h-15.5l2.6-4.4h15.5l-2.6,4.4ZM77.33,7.72h-15.5l-2.6,4.4h15.5l2.6-4.4Z"/>
</svg>