<?xml version="1.0" encoding="UTF-8"?>
<svg id="Calque_1" xmlns="http://www.w3.org/2000/svg" version="1.1" viewBox="0 0 72 40">
  <!-- Generator: Adobe Illustrator 29.8.1, SVG Export Plug-In . SVG Version: 2.1.1 Build 2)  -->
  <defs>
    <style>
      .st0 {
        fill: #0b41cd;
        fill-rule: evenodd;
      }
    </style>
  </defs>
  <path class="st0" d="M16.2,39h39.7l16.1-19.5L55.9,0H16.2L0,19.5l16.2,19.5ZM55,37H17L2.6,19.4,17.1,2h37.9l14.5,17.6-14.5,17.3v.1ZM17,19.1v6.9h-2.2v-15.2h4.3c1.2,0,2,.3,2.8,1,.6.8,1,1.7,1,3,.02.78-.19,1.54-.6,2.2-.3.6-.8,1-1.4,1.3.3.1.6.4.9.7l.4,1.5.6,5.5h-2.2l-.5-5.3c-.1-.5-.2-.9-.5-1.1-.2-.2-.5-.4-1-.4h-1.6v-.1ZM17,12.7v4.4h2c.5,0,1-.1,1.2-.5.4-.4.5-1,.5-1.7,0-.8-.2-1.3-.5-1.7-.2-.3-.7-.5-1.2-.5h-2ZM30,25.7c-.5.3-1.2.5-2,.5s-1.4-.2-2-.6c-.6-.3-1.1-.9-1.4-1.6-.4-.6-.5-1.5-.5-2.4v-2c0-1,.1-1.8.5-2.5.63-1.3,1.95-2.12,3.4-2.1.8,0,1.4.2,2,.6.6.4,1.1.9,1.4,1.6.4.7.5,1.5.5,2.4v2.1c0,1-.1,1.8-.5,2.4-.3.7-.8,1.3-1.4,1.6ZM26.6,23.6c.4.4.8.6,1.4.6s1-.2,1.4-.6c.3-.5.5-1.1.5-2v-2.2c.05-.67-.12-1.34-.5-1.9-.4-.4-.8-.6-1.4-.6s-1,.2-1.4.6c-.38.56-.55,1.23-.5,1.9v2.3c0,.8.2,1.4.5,1.9ZM40.1,25.3c-.6.6-1.5,1-2.5,1-1.2,0-2.2-.5-2.9-1.3-.74-.97-1.09-2.18-1-3.4v-2c-.09-1.22.26-2.43,1-3.4.8-.9,1.7-1.3,3-1.3,1,0,1.9.3,2.5,1,.6.5,1,1.4,1.2,2.5l-2,.5c-.2-1.4-.8-2-1.8-2-.6,0-1,.2-1.4.6-.3.5-.5,1.1-.5,1.9v2.3c0,.8.2,1.4.5,1.9.4.4.8.6,1.4.6.5,0,.9-.1,1.2-.5.3-.3.5-.8.6-1.5l2,.5c-.2,1.1-.6,2-1.3,2.6ZM45,18.8v7.2h-2v-15.2h2v5.2c.2-.3.5-.5,1-.8.44-.21.92-.31,1.4-.3,1,0,1.7.3,2.2,1,.5.5.8,1.4.8,2.5v7.6h-2v-7.2c0-.6-.2-1.1-.5-1.5-.3-.3-.7-.5-1.2-.5s-1,.2-1.2.5c-.42.46-.61,1.09-.5,1.7v-.2ZM58.6,16.1c.6.8,1,2,1,3.3v1.6h-5.6v.9c0,.8.2,1.4.5,1.9.4.4.8.6,1.3.6s.9-.1,1.2-.5c.3-.3.5-.7.6-1.3l1.8.4c-.1,1-.5,1.8-1.1,2.4-.7.6-1.5.9-2.5.9-1.2,0-2-.4-2.8-1.3-.7-.8-1-2-1-3.4v-2c0-1,.1-1.7.5-2.5.3-.6.8-1.2,1.3-1.6.6-.3,1.3-.5,2-.5,1.2,0,2,.4,2.8,1.2v-.1ZM57.2,17.4c-.4-.5-.8-.7-1.4-.7-.5,0-1,.2-1.2.7-.4.4-.5,1-.5,1.8v.3h3.5v-.4c.04-.59-.1-1.19-.4-1.7Z"/>
</svg>