<?xml version="1.0" encoding="UTF-8"?>
<svg id="Calque_1" data-name="Calque 1" xmlns="http://www.w3.org/2000/svg" viewBox="0 0 298.12 59.45">
  <defs>
    <style>
      .cls-1 {
        fill: #fd5e28;
      }

      .cls-2 {
        fill: #fff;
      }

      .cls-3 {
        fill: #00328b;
      }
    </style>
  </defs>
  <g>
    <rect class="cls-1" x="238.67" width="59.46" height="59.45"/>
    <g>
      <path class="cls-2" d="M249.24,20.09c-.54,0-1.08-.07-1.62-.2-.54-.13-.97-.3-1.28-.52l.17-1.48c.36.23.78.42,1.27.55.48.14.95.2,1.39.2.52,0,.92-.1,1.21-.29.28-.19.42-.46.42-.81,0-.29-.12-.53-.36-.71s-.69-.38-1.35-.59c-.94-.29-1.6-.65-2-1.05-.4-.41-.6-.95-.6-1.62,0-.48.12-.91.37-1.28.25-.37.6-.66,1.07-.87.47-.21,1.01-.31,1.64-.31.45,0,.9.06,1.36.17.46.11.86.27,1.21.46l-.24,1.44c-.32-.19-.69-.34-1.1-.46-.41-.12-.8-.18-1.17-.18-.48,0-.85.09-1.09.26-.25.17-.37.42-.37.75,0,.2.05.37.14.5.09.13.25.25.46.36s.52.22.92.35c1.03.32,1.75.7,2.18,1.11.43.42.65.96.65,1.64,0,.79-.29,1.42-.88,1.87-.58.46-1.39.68-2.4.68Z"/>
      <path class="cls-2" d="M254.78,15.45h-1.12v-1.3h1.12v-1.56h1.57v1.56h1.37v1.3h-1.37v4.46h-1.57v-4.46Z"/>
      <path class="cls-2" d="M261.65,20.09c-.51,0-.96-.12-1.36-.37-.4-.25-.72-.61-.96-1.07-.23-.46-.35-1-.35-1.6,0-.56.11-1.07.35-1.53.23-.46.56-.84.98-1.12.42-.28.9-.42,1.43-.42.39,0,.75.08,1.07.24.32.16.58.39.76.68l.02-.75h1.51v5.76h-1.51l-.02-.74c-.2.3-.46.53-.78.68s-.7.23-1.13.23ZM262.08,18.69c.45,0,.81-.15,1.1-.46.29-.31.43-.71.43-1.2s-.14-.88-.42-1.19c-.28-.31-.65-.46-1.1-.46s-.82.15-1.1.46c-.28.31-.42.71-.42,1.19s.14.89.43,1.2.65.46,1.1.46Z"/>
      <path class="cls-2" d="M267.21,14.15h1.52v.95c.17-.34.38-.6.65-.78.27-.18.58-.27.93-.27.24,0,.46.04.67.12l-.14,1.48c-.23-.09-.47-.14-.7-.14-.43,0-.76.15-1,.46s-.36.74-.36,1.3v2.63h-1.57v-5.76Z"/>
      <path class="cls-2" d="M273.33,15.45h-1.12v-1.3h1.12v-1.56h1.57v1.56h1.37v1.3h-1.37v4.46h-1.57v-4.46Z"/>
      <path class="cls-2" d="M245.97,25.06h1.82l1.65,6.42,1.88-6.3h1.51l1.88,6.23,1.64-6.34h1.82l-2.59,8.6h-1.64l-1.89-6.18-1.86,6.18h-1.65l-2.57-8.6Z"/>
      <path class="cls-2" d="M260.46,26.72c-.27,0-.5-.09-.67-.27-.18-.18-.27-.39-.27-.65s.09-.47.27-.65c.18-.17.4-.26.67-.26s.5.09.67.26c.18.17.27.39.27.65s-.09.48-.27.66-.4.26-.67.26ZM259.68,27.9h1.57v5.76h-1.57v-5.76Z"/>
      <path class="cls-2" d="M263.87,29.2h-1.12v-1.3h1.12v-1.56h1.57v1.56h1.37v1.3h-1.37v4.46h-1.57v-4.46Z"/>
      <path class="cls-2" d="M268.37,24.49h1.57v4.04c.17-.26.39-.47.68-.61.29-.14.63-.21,1.01-.21.68,0,1.2.21,1.56.63.36.42.54,1.02.54,1.82v3.5h-1.57v-3.2c0-.9-.34-1.35-1.03-1.35-.38,0-.67.13-.88.38-.21.25-.31.61-.31,1.07v3.1h-1.57v-9.17Z"/>
      <path class="cls-2" d="M246.74,38.8h2.81c.63,0,1.18.11,1.65.34.48.23.85.55,1.11.97.27.42.4.92.4,1.49,0,.87-.29,1.56-.87,2.08-.58.52-1.35.78-2.31.78h-1.12v2.94h-1.68v-8.6ZM248.42,43.07h.89c.57,0,1-.12,1.3-.37.3-.25.45-.61.45-1.07s-.15-.82-.44-1.06c-.29-.24-.73-.36-1.3-.36h-.89v2.88Z"/>
      <path class="cls-2" d="M257.24,47.58c-.67,0-1.26-.12-1.76-.36-.5-.24-.89-.59-1.17-1.06-.28-.46-.42-1.01-.42-1.64,0-.58.12-1.1.36-1.57.24-.46.58-.83,1.03-1.1.45-.27.96-.4,1.55-.4.54,0,1.02.12,1.43.35s.73.56.96.99c.23.43.35.94.35,1.53,0,.25-.02.48-.06.68h-4.06c.2.86.85,1.29,1.96,1.29.35,0,.68-.04,1.01-.11.33-.07.62-.18.89-.31l.16,1.23c-.27.15-.6.27-1,.35s-.8.12-1.23.12ZM258.06,43.9c-.04-.4-.17-.71-.39-.92-.22-.22-.52-.32-.89-.32s-.66.11-.89.32c-.23.21-.38.52-.45.92h2.63Z"/>
      <path class="cls-2" d="M264.23,47.58c-.57,0-1.08-.13-1.56-.38-.47-.26-.85-.62-1.13-1.09-.28-.47-.42-1-.42-1.6,0-.55.13-1.06.39-1.52.26-.46.63-.84,1.1-1.11s1.01-.42,1.61-.42,1.08.13,1.56.38c.47.25.85.61,1.13,1.08.28.47.42,1,.42,1.6,0,.56-.13,1.07-.39,1.53-.26.46-.63.84-1.1,1.11s-1.01.42-1.61.42ZM264.23,46.18c.45,0,.81-.15,1.1-.46.29-.31.43-.71.43-1.2s-.14-.88-.42-1.19c-.28-.31-.65-.46-1.1-.46s-.82.15-1.1.46c-.28.31-.42.71-.42,1.19s.14.89.43,1.2.65.46,1.1.46Z"/>
      <path class="cls-2" d="M269.12,41.64h1.51l.02.75c.39-.62,1.03-.93,1.91-.93.51,0,.96.12,1.36.37.4.25.72.61.96,1.07.23.46.35,1,.35,1.6,0,.56-.12,1.07-.35,1.53s-.56.84-.98,1.12c-.42.28-.9.42-1.43.42-.38,0-.73-.07-1.04-.22-.31-.15-.56-.36-.75-.63v3.44h-1.57v-8.53ZM272.13,46.18c.45,0,.82-.15,1.1-.46s.42-.71.42-1.19-.14-.89-.43-1.2c-.29-.31-.65-.46-1.1-.46s-.81.15-1.1.46c-.29.31-.43.71-.43,1.2s.14.88.42,1.19.65.46,1.1.46Z"/>
      <path class="cls-2" d="M277.05,38.23h1.57v9.17h-1.57v-9.17Z"/>
      <path class="cls-2" d="M283.79,47.58c-.67,0-1.26-.12-1.76-.36-.5-.24-.89-.59-1.17-1.06-.28-.46-.42-1.01-.42-1.64,0-.58.12-1.1.36-1.57.24-.46.58-.83,1.03-1.1.45-.27.96-.4,1.55-.4.54,0,1.02.12,1.43.35s.73.56.96.99c.23.43.35.94.35,1.53,0,.25-.02.48-.06.68h-4.06c.2.86.85,1.29,1.96,1.29.35,0,.68-.04,1.01-.11.33-.07.62-.18.89-.31l.16,1.23c-.27.15-.6.27-1,.35s-.8.12-1.23.12ZM284.62,43.9c-.04-.4-.17-.71-.39-.92-.22-.22-.52-.32-.89-.32s-.66.11-.89.32c-.23.21-.38.52-.45.92h2.63Z"/>
    </g>
  </g>
  <g>
    <path class="cls-3" d="M32,38.52c-2.93,0-4.87-2.06-4.87-5.12s1.93-5.12,4.74-5.12c1.75,0,3.31.75,4.68,2.12v5.68c-.44,1.5-2.56,2.43-4.56,2.43ZM30.81,42.89c2.31,0,4.43-1,5.62-2.43l.06,1.87h4.68v-17.85h-4.68l-.06,1.93c-1.19-1.5-3.49-2.5-5.8-2.5-4.93,0-8.36,3.99-8.36,9.49s3.68,9.49,8.55,9.49Z"/>
    <path class="cls-3" d="M55.02,38.56c-2.93,0-4.87-2.06-4.87-5.12s1.93-5.12,4.74-5.12c1.75,0,3.31.75,4.68,2.12v5.68c-.44,1.5-2.56,2.43-4.56,2.43ZM64.2,41.12v-16.6h-4.68l-.06,1.93c-1.19-1.5-3.49-2.5-5.8-2.5-4.93,0-8.36,3.99-8.36,9.49s3.68,9.49,8.55,9.49c2.31,0,4.43-1,5.62-2.43v.81c0,3.68-1.62,5.62-5.8,5.62-1.56,0-4.31-.56-5.8-1.56l-.5,4.43c1.62.94,4.68,1.44,6.86,1.44,6.68,0,9.98-3.43,9.98-10.11Z"/>
    <path class="cls-3" d="M78.08,38.52c-2.93,0-4.87-2.06-4.87-5.12s1.93-5.12,4.74-5.12c1.75,0,3.31.75,4.68,2.12v5.68c-.44,1.5-2.56,2.43-4.56,2.43ZM76.89,42.89c2.31,0,4.43-1,5.62-2.43l.06,1.87h4.68v-17.85h-4.68l-.06,1.93c-1.19-1.5-3.49-2.5-5.8-2.5-4.93,0-8.36,3.99-8.36,9.49s3.68,9.49,8.55,9.49Z"/>
    <path class="cls-3" d="M149.28,38.52c-2.93,0-4.87-2.06-4.87-5.12s1.93-5.12,4.74-5.12c1.75,0,3.31.75,4.68,2.12v5.68c-.44,1.5-2.56,2.43-4.56,2.43ZM148.09,42.89c2.31,0,4.43-1,5.62-2.43l.06,1.87h4.68v-17.85h-4.68l-.06,1.93c-1.19-1.5-3.49-2.5-5.8-2.5-4.93,0-8.36,3.99-8.36,9.49s3.68,9.49,8.55,9.49Z"/>
    <path class="cls-3" d="M209.35,38.52c-2.93,0-4.87-2.06-4.87-5.12s1.93-5.12,4.74-5.12c1.75,0,3.31.75,4.68,2.12v5.68c-.44,1.5-2.56,2.43-4.56,2.43ZM208.17,42.89c2.31,0,4.43-1,5.62-2.43l.06,1.87h4.68v-17.85h-4.68l-.06,1.93c-1.19-1.5-3.49-2.5-5.8-2.5-4.93,0-8.36,3.99-8.36,9.49s3.68,9.49,8.55,9.49Z"/>
    <path class="cls-3" d="M92.43,42.32h4.87v-8.11c0-3.18,1.31-5.49,4.18-5.49.75,0,1.5.12,2.18.44l.44-4.62c-.62-.25-1.31-.37-2.06-.37-2.25,0-3.93,1.19-4.87,3.25l-.06-2.93h-4.68v17.85Z"/>
    <path class="cls-3" d="M107.65,42.32h4.87v-9.67c0-2.5,1.12-4.43,3.49-4.43s3.18,1.56,3.18,4.18v9.92h4.87v-9.61c0-2.5,1.06-4.49,3.43-4.49s3.12,1.62,3.12,4.18v9.92h4.87v-10.86c0-4.68-2.06-7.55-6.49-7.55-2.37,0-4.68,1.19-5.74,3.18-1.06-2.12-2.87-3.18-5.43-3.18-2.12,0-4.24.75-5.43,2.81l-.06-2.25h-4.68v17.85Z"/>
    <path class="cls-3" d="M171.47,42.9c1.31,0,3.43-.31,4.74-1.06l-.5-4.06c-1,.56-2.06.81-3.18.81-1.93,0-2.75-1-2.75-3.49v-6.55h5.55v-4.06h-5.55v-4.81h-4.87v4.81h-3.49v4.06h3.49v7.43c0,4.56,2.06,6.93,6.55,6.93Z"/>
    <path class="cls-3" d="M179.75,42.38h4.87v-9.61c0-2.68,1.19-4.49,3.62-4.49,2.12,0,3.18,1.37,3.18,4.18v9.92h4.87v-10.86c0-4.62-2-7.55-6.43-7.55-2,0-4.12.69-5.24,2.56v-9.49h-4.87v25.34Z"/>
    <path class="cls-3" d="M8.99,42.91c5.55,0,10.11-2.43,10.11-7.93,0-4.81-3.49-6.86-8.74-8.49-3.12-1.12-4.74-1.68-4.74-3.74s1.75-3.12,4.56-3.12c2.37,0,4.87.75,6.99,1.93l.75-4.43c-2.12-1.25-5.3-1.93-7.93-1.93C4.74,15.2.44,17.82.44,22.75c0,4.62,3.06,6.68,8.05,8.3,3.06.94,5.3,1.81,5.3,3.99,0,2.31-2,3.37-5.05,3.37-2.75,0-5.87-.87-8.24-2.31l-.5,4.56c1.93,1.44,6.12,2.25,8.99,2.25Z"/>
  </g>
</svg>