<?xml version="1.0" encoding="UTF-8"?>
<svg id="Layer_1" xmlns="http://www.w3.org/2000/svg" xmlns:svg="http://www.w3.org/2000/svg" xmlns:sodipodi="http://sodipodi.sourceforge.net/DTD/sodipodi-0.dtd" xmlns:rdf="http://www.w3.org/1999/02/22-rdf-syntax-ns#" xmlns:inkscape="http://www.inkscape.org/namespaces/inkscape" xmlns:dc="http://purl.org/dc/elements/1.1/" xmlns:cc="http://creativecommons.org/ns#" version="1.1" viewBox="0 0 641 159">
  <!-- Generator: Adobe Illustrator 29.8.1, SVG Export Plug-In . SVG Version: 2.1.1 Build 2)  -->
  <sodipodi:namedview id="namedview7" bordercolor="#666666" borderopacity="1" gridtolerance="10" guidetolerance="10" inkscape:current-layer="Layer_1" inkscape:cx="231.09869" inkscape:cy="125.81943" inkscape:pageopacity="0" inkscape:pageshadow="2" inkscape:window-height="1017" inkscape:window-maximized="1" inkscape:window-width="1920" inkscape:window-x="-8" inkscape:window-y="-8" inkscape:zoom="0.92299833" objecttolerance="10" pagecolor="#ffffff" showgrid="false"/>
  <path id="path4-1" d="M41.82,57.81c-.44-1.76-.33-3.53-.11-4.52.55-2.76,2.43-5.73,7.83-5.73,5.07,0,7.94,3.09,7.94,7.83v5.29h21.39v-6.06c0-18.64-16.87-21.62-29-21.62-15.1-.11-27.56,4.96-29.88,18.97-.66,3.86-.77,7.28.22,11.58,3.75,17.53,34.29,22.6,38.7,33.74.88,2.09.55,4.74.22,6.4-.66,2.87-2.65,5.84-8.38,5.84-5.4,0-8.6-3.09-8.6-7.83v-8.27h-23.15v6.62c0,19.19,15.11,24.92,31.2,24.92s28.23-5.29,30.32-19.63c.99-7.39.22-12.24-.11-14-3.53-18.19-36.17-23.49-38.59-33.52h0ZM321.11,58.03c-.33-1.65-.22-3.53-.11-4.41.66-2.76,2.43-5.73,7.83-5.73,4.96,0,7.83,3.09,7.83,7.72v5.29h21.17v-5.95c0-18.52-16.54-21.39-28.56-21.39-15.11,0-27.45,4.96-29.77,18.85-.55,3.75-.77,7.17.22,11.47,3.64,17.2,33.85,22.27,38.26,33.3.77,2.09.55,4.74.11,6.28-.66,2.87-2.54,5.73-8.27,5.73-5.29,0-8.6-3.09-8.6-7.72v-8.27h-22.82v6.51c0,18.96,14.89,24.7,30.87,24.7s28.01-5.29,29.99-19.41c.99-7.39.22-12.13-.11-13.89-3.42-17.86-35.61-23.15-38.04-33.08h0ZM516.05,104.78l-20.18-69.13h-31.86v85.01h21.06l-1.21-71.34,21.72,71.34h30.54V35.65h-21.17l1.1,69.13ZM110.96,35.65l-15.88,85.89h23.15l12.02-79.5,11.69,79.5h23.04l-15.87-85.89h-38.15ZM240.62,35.65l-10.81,67.15-10.8-67.15h-35.06l-1.87,85.89h21.5l.55-79.5,14.77,79.5h21.72l14.89-79.5.55,79.5h21.5l-1.87-85.89s-35.07,0-35.07,0ZM440.19,35.65h-21.72v63.51c0,1.1,0,2.32-.22,3.31-.44,2.09-2.21,6.28-8.27,6.28s-7.72-4.08-8.16-6.28c-.22-.88-.22-2.21-.22-3.31v-63.51h-21.72v61.52c0,1.54.11,4.85.22,5.62,1.54,15.99,14.11,21.28,29.88,21.28s28.45-5.18,29.99-21.28c.11-.88.33-4.08.22-5.62v-61.52ZM589.26,73.36v12.57h8.82v12.35c0,1.1,0,2.32-.22,3.31-.33,2.32-2.54,6.28-8.82,6.28s-8.38-3.97-8.71-6.28c-.11-.99-.22-2.21-.22-3.31v-39.26c0-1.43.11-2.87.44-4.08.44-2.09,2.32-6.17,8.49-6.17,6.62,0,8.16,4.3,8.6,6.17.22,1.21.22,3.31.22,3.31v4.74h21.61v-2.87s.11-2.98-.11-5.73c-1.65-16.1-14.89-21.17-30.1-21.17s-28.23,5.18-30.1,21.17c-.22,1.43-.44,4.08-.44,5.73v36.05c0,1.54,0,2.76.33,5.62,1.43,15.66,15,21.17,30.21,21.17s28.78-5.51,30.21-21.17c.22-2.87.33-4.08.33-5.62v-22.82h-30.54Z" inkscape:connector-curvature="0" inkscape:export-filename="C:\Users\suitedoalex\sites\samsung-logo-3.png" inkscape:export-xdpi="654.4845" inkscape:export-ydpi="654.4845"/>
</svg>