<?xml version="1.0" encoding="UTF-8"?>
<svg id="svg824" xmlns="http://www.w3.org/2000/svg" xmlns:svg="http://www.w3.org/2000/svg" version="1.1" viewBox="0 0 877 287">
  <!-- Generator: Adobe Illustrator 29.8.1, SVG Export Plug-In . SVG Version: 2.1.1 Build 2)  -->
  <defs>
    <style>
      .st0 {
        fill: #7a01e6;
      }

      .st0, .st1 {
        fill-rule: evenodd;
      }
    </style>
  </defs>
  <g id="g830">
    <path id="path1092" class="st1" d="M264.96,96.02c-43.62,0-74.25,29.18-74.25,75.12s26.58,75.12,73.68,75.12c19.06,0,37.55-3.18,57.49-11.56,4.63-2.02,7.23-5.2,7.23-11.56v-104.88c0-6.65-2.6-9.82-7.23-11.55-19.07-7.23-36.98-10.69-56.92-10.69ZM264.67,130.69c7.8,0,13.29.86,19.65,2.6,4.91,1.44,7.22,3.46,7.22,7.79v60.1c0,4.33-2.31,6.36-7.22,7.8-6.36,1.73-11.85,2.6-19.65,2.6-18.49,0-35.83-10.99-35.83-40.46s17.34-40.45,35.83-40.45Z"/>
    <path id="path1088" class="st1" d="M171.64,221.12c0,4.91-.57,11.56-2.31,16.47-1.44,4.34-3.17,5.78-7.5,5.78h-26.01c-2.89,0-4.33-1.74-4.33-4.04,0-.58,0-1.16.29-1.74,1.16-3.76,1.73-6.36,1.73-10.69,0-42.49-93.03-18.78-93.03-80.03,0-31.21,24.85-52,63.56-52,20.51,0,41.9,4.9,59.81,15.31,2.32,1.17,3.47,3.47,3.47,5.78,0,1.44-.32,3.13-1.16,4.9l-8.96,19.08c-1.16,2.6-3.76,4.05-6.36,4.05-1.44,0-2.89-.3-4.33-1.16-14.73-8.09-28.89-13-43.63-13s-24.27,5.6-24.27,14.45c0,27.05,93.03,11.26,93.03,76.85"/>
    <path id="path1086" class="st1" d="M495.81,150.33v87.26c0,3.47-2.31,5.78-5.78,5.78h-26c-3.47,0-5.78-2.31-5.78-5.78v-82.34c0-17.33-12.42-24.55-28.03-24.55-8.96,0-13.86.57-21.38,2.3-4.63,1.16-6.93,3.18-6.93,7.52v97.08c0,3.47-2.31,5.78-5.78,5.78h-26c-3.47,0-5.78-2.31-5.78-5.78v-119.61c0-6.65,3.18-10.12,7.23-11.56,21.09-7.51,41.03-10.39,58.08-10.39,44.49,0,66.16,19.07,66.16,54.31"/>
    <path id="path1084" class="st1" d="M595.21,96.02c-43.34,0-71.66,31.49-71.66,75.12s28.32,75.12,73.68,75.12,71.65-31.49,71.65-75.12-28.31-75.12-73.67-75.12ZM595.21,130.69c21.38,0,35.53,13.86,35.53,40.45s-14.15,40.46-33.51,40.46c-21.38,0-35.54-13.87-35.54-40.46s14.16-40.45,33.52-40.45Z"/>
    <path id="path1080" class="st1" d="M835.59,104.68v132.9c0,3.47-2.31,5.78-5.78,5.78h-26c-3.47,0-5.78-2.31-5.78-5.78V104.68c0-3.47,2.31-5.78,5.78-5.78h26c3.47,0,5.78,2.31,5.78,5.78"/>
    <path id="path848" class="st1" d="M780.11,48.92c0,1.25-.32,2.42-.57,3.76l-2.9,15.02c-.57,3.47-2.02,5.49-5.49,5.49-2.15,0-8.38-1.44-14.15-1.44-15.89,0-22.83,8.09-22.83,23.98v3.18h36.7c3.76,0,5.78,2.31,5.78,6.06v19.94c0,3.47-2.02,5.78-5.78,5.78h-36.7v106.9c0,3.47-2.31,5.78-5.78,5.78h-25.71c-3.47,0-5.78-2.31-5.78-5.78V101.79c0-41.61,23.41-60.68,59.23-60.68,6.16,0,12.42.58,18.2,2.02,4.04.86,5.78,2.57,5.78,5.78"/>
    <path id="path852" class="st0" d="M818.06,81.46c11.85,0,19.94-7.8,19.94-20.23,0-12.72-8.09-20.23-20.8-20.24-12.14,0-19.94,7.51-19.93,20.23,0,12.42,7.8,20.22,20.8,20.23"/>
    <path id="path856" class="st0" d="M57.64,206.43c-11.84,0-19.64,7.51-19.64,19.94,0,12.14,7.8,19.94,20.51,19.94,11.85,0,19.64-7.8,19.64-19.94,0-12.42-7.79-19.94-20.51-19.94"/>
  </g>
</svg>