<?xml version="1.0" encoding="UTF-8"?>
<svg id="Calque_1" data-name="Calque 1" xmlns="http://www.w3.org/2000/svg" viewBox="0 0 1920 1080">
  <defs>
    <style>
      .cls-1 {
        fill: #a0adda;
      }

      .cls-2 {
        fill: #ffc94f;
      }

      .cls-3 {
        fill: #fff;
      }

      .cls-4 {
        fill: #363b54;
      }

      .cls-5 {
        fill: #f8f9fa;
      }
    </style>
  </defs>
  <rect class="cls-5" width="1920" height="1080"/>
  <g>
    <path class="cls-4" d="M195.6,874.9c-.27,0-.53-.14-.67-.39-.21-.37-.09-.85.28-1.06l27.74-16.01c.37-.21.85-.09,1.06.29.21.37.09.85-.28,1.06l-27.74,16.01c-.12.07-.26.1-.39.1ZM184.96,873.43c-.27,0-.53-.14-.67-.39-.21-.37-.09-.85.28-1.06l35.85-20.69c.37-.21.85-.09,1.06.29.21.37.09.85-.28,1.06l-35.85,20.69c-.12.07-.26.1-.39.1ZM214.16,871.79c-.27,0-.53-.14-.67-.39-.21-.37-.09-.85.29-1.06l2.34-1.35c.37-.21.85-.09,1.06.29.21.37.09.85-.29,1.06l-2.34,1.35c-.12.07-.26.1-.39.1ZM177.22,870.29c-.27,0-.53-.14-.67-.39-.21-.37-.09-.85.28-1.06l38.13-22.02c.37-.21.85-.09,1.06.28.21.37.09.85-.28,1.06l-38.13,22.02c-.12.07-.26.1-.39.1ZM171.84,865.78c-.27,0-.53-.14-.67-.39-.21-.37-.09-.85.28-1.06l35.72-20.62c.37-.21.85-.09,1.06.28.21.37.09.85-.28,1.06l-35.72,20.62c-.12.07-.26.1-.39.1ZM169.38,859.59c-.27,0-.53-.14-.67-.39-.21-.37-.09-.85.28-1.06l27.46-15.85c.37-.21.85-.09,1.06.28.21.37.09.85-.28,1.06l-27.46,15.85c-.12.07-.26.1-.39.1ZM174.89,848.8c-.27,0-.53-.14-.67-.39-.22-.37-.09-.85.28-1.06l2.78-1.61c.37-.21.85-.09,1.06.28.22.37.09.85-.28,1.06l-2.78,1.61c-.12.07-.26.1-.39.1Z"/>
    <g>
      <path class="cls-3" d="M215.41,855.39c5.26-3.03,7.89-7.01,7.92-10.98h0v-11.44h-.02c.13-4.07-2.48-8.16-7.85-11.26-10.53-6.08-27.6-6.06-38.14.02-5.38,3.1-8,7.18-7.91,11.25h-.02v11.43c-.02,3.99,2.61,7.98,7.88,11.02,10.52,6.07,27.59,6.06,38.14-.03Z"/>
      <path class="cls-4" d="M196.3,861.91c-7.53,0-14.63-1.71-20-4.81-5.73-3.31-8.87-7.82-8.85-12.71v-11.42c0-.08,0-.15.01-.23,0-4.9,3.15-9.4,8.89-12.71,5.39-3.11,12.51-4.83,20.05-4.83h.03c7.53,0,14.63,1.71,20.01,4.81,5.72,3.3,8.84,7.8,8.83,12.69.01.08.02.17.02.26v11.44c-.04,4.89-3.2,9.38-8.89,12.67-5.39,3.11-12.51,4.83-20.05,4.84h-.03ZM171.34,833.22v11.18c-.01,3.44,2.44,6.76,6.91,9.33,9.97,5.76,26.21,5.74,36.2-.03,0,0,0,0,0,0,4.45-2.57,6.92-5.87,6.94-9.31v-11.13c-.02-.11-.03-.23-.02-.35.11-3.52-2.33-6.9-6.88-9.52-9.97-5.76-26.2-5.75-36.2.02-4.55,2.62-7.02,6-6.94,9.52,0,.1,0,.19-.02.29Z"/>
      <path class="cls-4" d="M196.29,850.24c-7.53,0-14.62-1.71-19.99-4.8-5.73-3.31-8.87-7.82-8.85-12.72,0-1.07.87-1.94,1.95-1.94h0c1.07,0,1.94.88,1.94,1.95-.01,3.44,2.44,6.76,6.91,9.33,9.96,5.75,26.2,5.74,36.2-.03,4.47-2.58,6.93-5.89,6.95-9.32,0-1.07.87-1.94,1.95-1.94h0c1.07,0,1.94.88,1.94,1.95-.02,4.87-3.18,9.37-8.89,12.67-5.39,3.11-12.51,4.83-20.05,4.84h-.04Z"/>
    </g>
  </g>
  <g>
    <path class="cls-4" d="M562.62,751.09c-.27,0-.53-.14-.67-.39-.21-.37-.09-.85.29-1.06l27.79-16.04c.37-.21.85-.09,1.06.29.21.37.09.85-.29,1.06l-27.79,16.04c-.12.07-.26.1-.39.1ZM556.03,747.29c-.27,0-.53-.14-.67-.39-.21-.37-.09-.85.28-1.06l27.79-16.05c.37-.21.85-.09,1.06.28.21.37.09.85-.28,1.06l-27.79,16.05c-.12.07-.26.1-.39.1ZM549.44,743.48c-.27,0-.53-.14-.67-.39-.21-.37-.09-.85.28-1.06l27.79-16.05c.37-.21.85-.09,1.06.28.21.37.09.85-.28,1.06l-27.79,16.05c-.12.07-.26.1-.39.1ZM542.85,739.68c-.27,0-.53-.14-.67-.39-.21-.37-.09-.85.29-1.06l27.8-16.05c.37-.21.85-.09,1.06.29s.09.85-.29,1.06l-27.8,16.05c-.12.07-.26.1-.39.1ZM536.26,735.87c-.27,0-.53-.14-.67-.39-.21-.37-.09-.85.29-1.06l27.8-16.04c.37-.21.85-.09,1.06.29.21.37.09.85-.29,1.06l-27.8,16.04c-.12.07-.26.1-.39.1Z"/>
    <g>
      <polygon class="cls-3" points="591.24 704.59 563.39 688.5 535.59 704.55 535.59 725.63 563.45 741.72 591.24 725.67 591.24 704.59"/>
      <path class="cls-4" d="M563.45,743.66c-.34,0-.67-.09-.97-.26l-27.86-16.09c-.6-.35-.97-.99-.97-1.68v-21.08c0-.7.37-1.34.97-1.68l27.8-16.05c.6-.35,1.34-.35,1.95,0l27.86,16.09c.6.35.97.99.97,1.68v21.08c0,.7-.37,1.34-.97,1.68l-27.8,16.05c-.3.17-.64.26-.97.26ZM537.53,724.51l25.91,14.96,25.85-14.92v-18.83l-25.91-14.96-25.85,14.92v18.83Z"/>
      <path class="cls-4" d="M563.45,722.58c-.67,0-1.33-.35-1.69-.97-.54-.93-.22-2.12.71-2.66l27.8-16.05c.93-.54,2.12-.22,2.66.71.54.93.22,2.12-.71,2.66l-27.8,16.05c-.31.18-.64.26-.97.26Z"/>
      <path class="cls-4" d="M563.44,722.58c-.33,0-.66-.08-.97-.26l-27.86-16.09c-.93-.54-1.25-1.73-.71-2.66.54-.93,1.73-1.25,2.66-.71l27.86,16.09c.93.54,1.25,1.73.71,2.66-.36.62-1.01.97-1.69.97Z"/>
      <path class="cls-4" d="M563.45,743.66c-1.07,0-1.95-.87-1.95-1.95v-21.08c0-1.07.87-1.95,1.95-1.95s1.95.87,1.95,1.95v21.08c0,1.07-.87,1.95-1.95,1.95Z"/>
    </g>
  </g>
  <g>
    <path class="cls-4" d="M177.38,567.12c-.27,0-.53-.14-.67-.39-.21-.37-.09-.85.28-1.06l61.49-35.5c.37-.21.85-.09,1.06.28.21.37.09.85-.28,1.06l-61.49,35.5c-.12.07-.26.1-.39.1ZM170.79,563.31c-.27,0-.53-.14-.67-.39-.21-.37-.09-.85.28-1.06l61.49-35.5c.37-.21.85-.09,1.06.28.21.37.09.85-.28,1.06l-61.49,35.5c-.12.07-.26.1-.39.1ZM164.2,559.51c-.27,0-.53-.14-.67-.39-.21-.37-.09-.85.28-1.06l61.49-35.5c.37-.22.85-.09,1.06.28.21.37.09.85-.28,1.06l-61.49,35.5c-.12.07-.26.1-.39.1ZM157.61,555.71c-.27,0-.53-.14-.67-.39-.21-.37-.09-.85.28-1.06l61.49-35.5c.37-.22.85-.09,1.06.28.21.37.09.85-.28,1.06l-61.49,35.5c-.12.07-.26.1-.39.1Z"/>
    <g>
      <polygon class="cls-3" points="239.32 510.47 218.2 498.28 156.71 533.78 156.71 545.45 177.84 557.65 239.32 522.15 239.32 510.47"/>
      <path class="cls-4" d="M177.84,559.59c-.34,0-.67-.09-.97-.26l-21.13-12.2c-.6-.35-.97-.99-.97-1.68v-11.67c0-.7.37-1.34.97-1.68l61.49-35.5c.6-.35,1.34-.35,1.95,0l21.12,12.2c.6.35.97.99.97,1.68v11.67c0,.7-.37,1.34-.97,1.68l-61.49,35.5c-.3.17-.64.26-.97.26ZM158.66,544.33l19.18,11.07,59.54-34.38v-9.43l-19.17-11.07-59.55,34.38v9.43Z"/>
      <path class="cls-4" d="M177.84,547.92c-.67,0-1.33-.35-1.69-.97-.54-.93-.22-2.12.71-2.66l61.49-35.5c.93-.54,2.12-.22,2.66.71.54.93.22,2.12-.71,2.66l-61.49,35.5c-.31.18-.64.26-.97.26Z"/>
      <path class="cls-4" d="M177.83,547.92c-.33,0-.66-.08-.97-.26l-21.13-12.2c-.93-.54-1.25-1.73-.71-2.66.54-.93,1.73-1.25,2.66-.71l21.13,12.2c.93.54,1.25,1.73.71,2.66-.36.62-1.01.97-1.69.97Z"/>
      <path class="cls-4" d="M177.84,559.59c-1.07,0-1.95-.87-1.95-1.95v-11.67c0-1.07.87-1.95,1.95-1.95s1.95.87,1.95,1.95v11.67c0,1.07-.87,1.95-1.95,1.95Z"/>
    </g>
  </g>
  <path class="cls-4" d="M549.56,569.11c-4.5,0-9.01-1.02-12.52-3.05-5.01-2.89-5.76-6.47-5.76-8.35s.74-5.44,5.73-8.32c6.99-4.04,17.97-4.03,24.99.02,5.01,2.89,5.76,6.47,5.76,8.35,0,1.87-.74,5.44-5.73,8.32h0c-3.5,2.02-7.98,3.03-12.47,3.03ZM549.46,550.3c-3.83,0-7.66.82-10.51,2.47-2.44,1.41-3.79,3.17-3.79,4.95,0,1.79,1.35,3.56,3.82,4.98,5.72,3.31,15.38,3.32,21.1.02,2.44-1.41,3.78-3.17,3.78-4.95,0-1.79-1.35-3.56-3.81-4.98-2.87-1.66-6.73-2.49-10.59-2.49ZM561.05,564.4h0,0Z"/>
  <path class="cls-4" d="M221.1,689.56c-.13,0-.25-.01-.38-.04-.57-.11-1.06-.47-1.33-.98l-3.68-6.79-12.27-2.22c-.85-.15-1.5-.85-1.59-1.71-.09-.86.4-1.68,1.2-2l10.03-4.09-.16-6.64c-.02-.66.31-1.29.86-1.66s1.25-.44,1.86-.17l10.53,4.55,12.5-2.44c.75-.15,1.52.16,1.96.78.44.62.48,1.45.09,2.11l-3.56,6.08,6.93,5.35c.66.51.92,1.39.65,2.17s-1.01,1.33-1.85,1.31l-13.12-.1-7.43,6.06c-.35.29-.79.44-1.23.44ZM210.71,676.89l6.61,1.2c.58.11,1.08.47,1.36.99l3.01,5.55,6.15-5.02c.35-.29.79-.45,1.24-.44l8.05.06-3.71-2.87c-.77-.6-.98-1.68-.49-2.52l2.25-3.84-8.86,1.73c-.38.07-.78.03-1.14-.12l-8.3-3.58.12,4.94c.02.81-.46,1.54-1.21,1.85l-5.09,2.08Z"/>
  <path class="cls-4" d="M490,891.31c-.34,0-.67-.09-.97-.26l-19.76-11.4c-.6-.35-.97-.99-.97-1.68s.37-1.34.97-1.68l19.7-11.38c.6-.35,1.34-.35,1.95,0l19.76,11.41c.6.35.97.99.97,1.68s-.37,1.34-.97,1.68l-19.71,11.38c-.3.17-.64.26-.97.26ZM474.13,877.96l15.87,9.16,15.81-9.13-15.87-9.16-15.81,9.13Z"/>
  <g>
    <path class="cls-4" d="M442.71,854.08c-.27,0-.53-.14-.67-.39-.21-.37-.09-.85.28-1.06l25.27-14.59c.37-.21.85-.09,1.06.28.21.37.09.85-.28,1.06l-25.27,14.59c-.12.07-.26.1-.39.1ZM436.11,850.28c-.27,0-.53-.14-.67-.39-.21-.37-.09-.85.28-1.06l25.28-14.59c.37-.21.85-.09,1.06.29.21.37.09.85-.28,1.06l-25.28,14.59c-.12.07-.26.1-.39.1ZM429.52,846.48c-.27,0-.53-.14-.67-.39-.21-.37-.09-.85.28-1.06l25.28-14.59c.37-.21.85-.09,1.06.28.21.37.09.85-.28,1.06l-25.28,14.59c-.12.07-.26.1-.39.1ZM422.93,842.67c-.27,0-.53-.14-.67-.39-.22-.37-.09-.85.28-1.06l25.27-14.6c.37-.21.85-.09,1.06.28.21.37.09.85-.28,1.06l-25.27,14.6c-.12.07-.26.1-.39.1ZM416.35,838.86c-.27,0-.53-.14-.67-.39-.21-.37-.09-.85.28-1.06l25.27-14.59c.37-.21.85-.09,1.06.28.21.37.09.85-.28,1.06l-25.27,14.59c-.12.07-.26.1-.39.1ZM409.75,835.06c-.27,0-.53-.14-.67-.39-.21-.37-.09-.85.28-1.06l25.28-14.59c.37-.21.85-.09,1.06.28.21.37.09.85-.28,1.06l-25.28,14.59c-.12.07-.26.1-.39.1ZM403.16,831.25c-.27,0-.53-.14-.67-.39-.21-.37-.09-.85.28-1.06l25.27-14.59c.37-.21.85-.09,1.06.28.21.37.09.85-.28,1.06l-25.27,14.59c-.12.07-.26.1-.39.1ZM396.57,827.45c-.27,0-.53-.14-.67-.39-.21-.37-.09-.85.28-1.06l25.27-14.59c.37-.21.85-.09,1.06.28.21.37.09.85-.28,1.06l-25.27,14.59c-.12.07-.26.1-.39.1ZM389.98,823.64c-.27,0-.53-.14-.67-.39-.21-.37-.09-.85.28-1.06l25.28-14.59c.37-.21.85-.09,1.06.29.21.37.09.85-.28,1.06l-25.28,14.59c-.12.07-.26.1-.39.1ZM383.39,819.84c-.27,0-.53-.14-.67-.39-.21-.37-.09-.85.28-1.06l25.28-14.59c.37-.21.85-.09,1.06.29.21.37.09.85-.28,1.06l-25.28,14.59c-.12.07-.26.1-.39.1ZM376.8,816.04c-.27,0-.53-.14-.67-.39-.21-.37-.09-.85.28-1.06l25.27-14.6c.37-.22.85-.09,1.06.28.21.37.09.85-.28,1.06l-25.27,14.6c-.12.07-.26.1-.39.1ZM370.2,812.23c-.27,0-.53-.14-.67-.39-.21-.37-.09-.85.28-1.06l25.28-14.59c.37-.21.85-.09,1.06.29.21.37.09.85-.28,1.06l-25.28,14.59c-.12.07-.26.1-.39.1ZM363.62,808.42c-.27,0-.53-.14-.67-.39-.21-.37-.09-.85.28-1.06l25.27-14.59c.37-.21.85-.09,1.06.28.21.37.09.85-.28,1.06l-25.27,14.59c-.12.07-.26.1-.39.1ZM357.02,804.61c-.27,0-.53-.14-.67-.39-.21-.37-.09-.85.28-1.06l25.28-14.59c.37-.21.85-.09,1.06.29s.09.85-.28,1.06l-25.28,14.59c-.12.07-.26.1-.39.1ZM350.42,800.8c-.27,0-.53-.14-.67-.39-.21-.37-.09-.85.28-1.06l25.28-14.59c.37-.21.85-.09,1.06.29.21.37.09.85-.28,1.06l-25.28,14.59c-.12.07-.26.1-.39.1ZM343.84,797c-.27,0-.53-.14-.67-.39-.21-.37-.09-.85.28-1.06l25.27-14.59c.37-.21.85-.09,1.06.28.21.37.09.85-.28,1.06l-25.27,14.59c-.12.07-.26.1-.39.1ZM337.24,793.19c-.27,0-.53-.14-.67-.39-.21-.37-.09-.85.28-1.06l25.27-14.59c.37-.21.85-.09,1.06.28.22.37.09.85-.28,1.06l-25.27,14.59c-.12.07-.26.1-.39.1ZM330.64,789.38c-.27,0-.53-.14-.67-.39-.21-.37-.09-.85.28-1.06l25.28-14.59c.37-.21.85-.09,1.06.29.21.37.09.85-.28,1.06l-25.28,14.59c-.12.07-.26.1-.39.1ZM324.05,785.57c-.27,0-.53-.14-.67-.39-.21-.37-.09-.85.28-1.06l25.28-14.59c.37-.21.85-.09,1.06.29.21.37.09.85-.28,1.06l-25.28,14.59c-.12.07-.26.1-.39.1ZM317.46,781.77c-.27,0-.53-.14-.67-.39-.21-.37-.09-.85.28-1.06l25.27-14.59c.37-.21.85-.09,1.06.28.22.37.09.85-.28,1.06l-25.27,14.59c-.12.07-.26.1-.39.1ZM310.86,777.96c-.27,0-.53-.14-.67-.39-.21-.37-.09-.85.28-1.06l25.27-14.59c.37-.21.85-.09,1.06.28.21.37.09.85-.28,1.06l-25.27,14.59c-.12.07-.26.1-.39.1Z"/>
    <g>
      <g>
        <path class="cls-3" d="M457.99,822.49c-8.23,4.76-17.72,5.2-25.77,2.06-1.93-.6-3.91-1.46-5.98-2.65l-88.36-51.01c-14.89-8.59-26.95-29.46-26.95-46.62v-226.66c0-2.6.31-4.94.84-7.04,1.46-8.33,6.55-16.06,14.6-20.71,8.23-4.74,17.71-5.2,25.75-2.07,1.93.62,3.93,1.48,6,2.66l88.33,51c14.89,8.61,26.96,29.47,26.97,46.63v226.66c0,2.59-.31,4.91-.82,7.01-1.45,8.33-6.55,16.09-14.61,20.74Z"/>
        <path class="cls-4" d="M442.93,828.52c-3.84,0-7.68-.7-11.35-2.12-2.12-.66-4.19-1.58-6.31-2.81l-88.36-51.01c-7.49-4.32-14.51-11.71-19.77-20.81-5.26-9.09-8.15-18.86-8.16-27.5v-226.66c0-2.61.3-5.11.88-7.45,1.64-9.22,7.29-17.23,15.53-21.99,8.46-4.87,18.43-5.68,27.38-2.22,2.15.69,4.27,1.64,6.31,2.81l88.34,51.01c7.49,4.33,14.52,11.72,19.78,20.82,5.26,9.1,8.16,18.86,8.16,27.5v226.66c0,2.57-.3,5.06-.86,7.41-1.63,9.24-7.29,17.27-15.54,22.03h0c-4.98,2.88-10.5,4.34-16.03,4.34ZM341.45,467.72c-4.86,0-9.72,1.28-14.11,3.82-7.26,4.19-12.23,11.25-13.65,19.36,0,.04-.02.09-.03.13-.51,2.05-.77,4.26-.78,6.58v226.66c0,16.51,11.66,36.67,25.98,44.94l88.36,51.01c1.89,1.09,3.72,1.9,5.58,2.48.04.01.09.03.13.05,7.88,3.07,16.66,2.36,24.09-1.93h0c7.27-4.19,12.25-11.26,13.66-19.39,0-.04.02-.08.03-.12.51-2.1.76-4.24.77-6.56v-226.66c0-16.51-11.67-36.67-26-44.95l-88.33-51c-1.85-1.06-3.68-1.88-5.62-2.5-.04-.01-.07-.02-.11-.04-3.22-1.25-6.59-1.87-9.97-1.87Z"/>
      </g>
      <path class="cls-4" d="M463.31,801.55c-.54,0-.97-.44-.97-.97v-23.21c0-.54.43-.97.96-.97.54,0,.97.44.97.97v23.21c0,.54-.43.97-.96.97ZM463.31,769.09c-.54,0-.97-.44-.97-.97v-194.2c-.02-16.82-11.89-37.36-26.48-45.8l-88.36-51.01c-1.92-1.1-3.87-1.97-5.78-2.58-.02,0-.04-.01-.06-.02-11.85-4.59-19.44-.06-22.91,3.04-.4.36-1.02.32-1.37-.08s-.32-1.02.08-1.37c6.55-5.87,15.39-7.08,24.88-3.42,2.04.65,4.1,1.57,6.13,2.74l88.36,51.01c7.35,4.25,14.24,11.52,19.41,20.47,5.17,8.95,8.02,18.55,8.03,27.02v194.2c0,.54-.43.97-.96.97Z"/>
      <path class="cls-4" d="M453.44,786.7c-3.77,0-7.57-.58-11-1.76-1.02-.35-1.55-1.46-1.2-2.47.35-1.02,1.46-1.55,2.47-1.2,7.45,2.57,16.86,1.93,22.9-1.55,3.16-1.82,4.89-4.13,4.86-6.5-.01-1.07.85-1.96,1.92-1.97,0,0,.02,0,.03,0,1.06,0,1.93.85,1.94,1.92.05,3.85-2.37,7.37-6.8,9.93-4.12,2.38-9.59,3.62-15.12,3.62Z"/>
      <path class="cls-4" d="M453.42,606.72c-3.77,0-7.57-.57-10.99-1.75-1.02-.35-1.56-1.46-1.2-2.47.35-1.02,1.46-1.56,2.47-1.2,7.45,2.57,16.87,1.93,22.91-1.56,3.16-1.81,4.88-4.12,4.85-6.5-.01-1.07.85-1.96,1.92-1.97,0,0,.02,0,.03,0,1.06,0,1.93.85,1.94,1.92.05,3.85-2.36,7.38-6.8,9.92-4.13,2.38-9.6,3.62-15.13,3.62Z"/>
      <g>
        <path class="cls-3" d="M463.47,692.46c-2.74,1.59-4.95.29-4.95-2.86v-18.25c0-3.17,2.21-7,4.94-8.58h0c2.73-1.57,4.95-.29,4.95,2.87v18.26c0,3.17-2.23,7-4.95,8.57h0ZM463.46,647.16c2.73-1.57,4.94-5.41,4.94-8.57v-18.26c0-3.15-2.21-4.45-4.94-2.87h0c-2.73,1.57-4.93,5.41-4.95,8.56l.02,18.26c0,3.16,2.21,4.45,4.93,2.87h0Z"/>
        <path class="cls-4" d="M461.26,694.12c-.64,0-1.24-.15-1.77-.46-1.25-.72-1.94-2.17-1.94-4.06v-18.25c0-3.51,2.37-7.65,5.42-9.42,1.63-.94,3.22-1.06,4.47-.34,1.25.72,1.94,2.16,1.95,4.05v18.26c0,3.53-2.4,7.66-5.43,9.41-.93.54-1.85.81-2.7.81ZM465.66,663.07c-.51,0-1.1.18-1.72.54-2.42,1.4-4.46,4.94-4.45,7.73v18.26c0,1.15.35,2.02.96,2.37.61.35,1.53.23,2.52-.35,0,0,0,0,0,0,2.41-1.39,4.45-4.93,4.46-7.73v-18.26c0-1.15-.36-2.01-.97-2.37-.23-.13-.5-.2-.81-.2ZM461.26,648.81c-.63,0-1.23-.15-1.77-.46-1.25-.72-1.94-2.17-1.94-4.06l-.02-18.26c.02-3.53,2.4-7.66,5.43-9.41,1.63-.94,3.21-1.06,4.46-.34,1.25.72,1.94,2.16,1.94,4.05v18.26c0,3.53-2.39,7.66-5.43,9.41-.93.54-1.84.81-2.69.81ZM465.66,617.76c-.51,0-1.1.18-1.71.54-2.41,1.39-4.45,4.93-4.46,7.73l.02,18.26c0,1.16.35,2.02.96,2.38.61.35,1.52.22,2.51-.35h0c2.41-1.39,4.45-4.93,4.45-7.73v-18.26c0-1.15-.35-2.01-.96-2.37-.23-.13-.5-.2-.8-.2Z"/>
      </g>
      <g>
        <path class="cls-3" d="M443.02,806.46c0,13.91-9.83,19.55-21.9,12.57l-88.36-51c-12.07-6.97-21.9-23.97-21.9-37.87v-226.67c0-13.91,9.82-19.56,21.9-12.6l88.35,51.02c12.09,6.97,21.91,23.96,21.91,37.87v226.68Z"/>
        <path class="cls-4" d="M430.91,823.98c-3.34,0-7-1.1-10.76-3.27l-88.36-51c-12.61-7.29-22.87-25.03-22.87-39.56v-226.67c0-7.44,2.62-13.05,7.37-15.8,4.77-2.76,10.96-2.22,17.44,1.52l88.35,51.02c6.14,3.54,11.89,9.59,16.2,17.05,4.31,7.45,6.68,15.45,6.68,22.51v226.68c0,7.44-2.62,13.04-7.38,15.79-2,1.16-4.26,1.73-6.68,1.73ZM322.99,489.84c-1.75,0-3.36.4-4.76,1.21-3.5,2.02-5.43,6.44-5.43,12.43v226.67c0,6.39,2.19,13.69,6.16,20.56,3.97,6.87,9.22,12.42,14.77,15.63l88.36,51c5.22,3.02,10.04,3.56,13.55,1.53,3.5-2.02,5.43-6.43,5.43-12.42v-226.68c0-6.39-2.19-13.7-6.16-20.57-3.97-6.87-9.22-12.42-14.78-15.62l-88.35-51.02c-3.15-1.81-6.14-2.73-8.8-2.73Z"/>
      </g>
      <path class="cls-4" d="M388.95,548.96c-.33,0-.67-.08-.97-.26l-20.51-11.86c-.93-.54-1.25-1.73-.71-2.66.54-.93,1.73-1.25,2.66-.71l20.51,11.86c.93.54,1.25,1.73.71,2.66-.36.62-1.01.97-1.69.97Z"/>
    </g>
  </g>
  <g>
    <path class="cls-4" d="M353.02,878.75c-.27,0-.53-.14-.67-.39-.21-.37-.09-.85.28-1.06l25.27-14.59c.37-.21.85-.09,1.06.28.21.37.09.85-.28,1.06l-25.27,14.59c-.12.07-.26.1-.39.1ZM346.43,874.94c-.27,0-.53-.14-.67-.39-.21-.37-.09-.85.28-1.06l25.27-14.59c.37-.21.85-.09,1.06.28.21.37.09.85-.28,1.06l-25.27,14.59c-.12.07-.26.1-.39.1ZM339.84,871.15c-.27,0-.53-.14-.67-.39-.21-.37-.09-.85.28-1.06l25.28-14.59c.37-.21.85-.09,1.06.29.21.37.09.85-.28,1.06l-25.28,14.59c-.12.07-.26.1-.39.1ZM333.24,867.33c-.27,0-.53-.14-.67-.39-.21-.37-.09-.85.28-1.06l25.28-14.59c.37-.21.85-.09,1.06.29.21.37.09.85-.28,1.06l-25.28,14.59c-.12.07-.26.1-.39.1ZM326.65,863.53c-.27,0-.53-.14-.67-.39-.21-.37-.09-.85.28-1.06l25.28-14.59c.37-.21.85-.09,1.06.29.21.37.09.85-.28,1.06l-25.28,14.59c-.12.07-.26.1-.39.1ZM320.06,859.72c-.27,0-.53-.14-.67-.39-.21-.37-.09-.85.28-1.06l25.27-14.59c.37-.21.85-.09,1.06.29.21.37.09.85-.28,1.06l-25.27,14.59c-.12.07-.26.1-.39.1ZM313.47,855.92c-.27,0-.53-.14-.67-.39-.21-.37-.09-.85.28-1.06l25.27-14.6c.37-.22.85-.09,1.06.28.21.37.09.85-.28,1.06l-25.27,14.6c-.12.07-.26.1-.39.1ZM306.88,852.12c-.27,0-.53-.14-.67-.39-.21-.37-.09-.85.28-1.06l25.28-14.59c.37-.21.85-.09,1.06.29.21.37.09.85-.28,1.06l-25.28,14.59c-.12.07-.26.1-.39.1ZM300.29,848.31c-.27,0-.53-.14-.67-.39-.21-.37-.09-.85.28-1.06l25.27-14.59c.37-.21.85-.09,1.06.28.21.37.09.85-.28,1.06l-25.27,14.59c-.12.07-.26.1-.39.1ZM293.7,844.5c-.27,0-.53-.14-.67-.39-.21-.37-.09-.85.28-1.06l25.28-14.59c.37-.21.85-.09,1.06.29.21.37.09.85-.28,1.06l-25.28,14.59c-.12.07-.26.1-.39.1ZM287.11,840.7c-.27,0-.53-.14-.67-.39-.21-.37-.09-.85.28-1.06l25.27-14.6c.37-.21.85-.09,1.06.28.21.37.09.85-.28,1.06l-25.27,14.6c-.12.07-.26.1-.39.1ZM280.52,836.9c-.27,0-.53-.14-.67-.39-.21-.37-.09-.85.28-1.06l25.27-14.59c.37-.21.85-.09,1.06.28.21.37.09.85-.28,1.06l-25.27,14.59c-.12.07-.26.1-.39.1ZM273.92,833.09c-.27,0-.53-.14-.67-.39-.21-.37-.09-.85.28-1.06l25.28-14.59c.37-.21.85-.09,1.06.29.21.37.09.85-.28,1.06l-25.28,14.59c-.12.07-.26.1-.39.1Z"/>
    <g>
      <path class="cls-3" d="M301.5,704.07l-20.16,11.64s-.02,0-.02.02l-.03.02h0c-8.85,5.17-14.32,16.16-14.31,31.81,0,31.33,21.94,69.41,49.02,85.04,13.56,7.83,25.83,8.55,34.71,3.37v.02s20.22-11.68,20.22-11.68h0c8.85-5.16,14.32-16.16,14.32-31.81-.02-31.34-21.95-69.4-49.03-85.05-13.56-7.83-25.83-8.53-34.71-3.37h0Z"/>
      <path class="cls-2" d="M326.1,713.27c-27.08-15.62-49.02-2.9-49.02,28.44,0,31.33,21.93,69.41,49.02,85.04,27.08,15.64,49.02,2.9,49.03-28.44,0-31.35-21.95-69.41-49.03-85.05Z"/>
      <path class="cls-4" d="M337.85,841.25c-7.04,0-14.81-2.34-22.83-6.96-13.39-7.73-25.95-20.99-35.38-37.35-9.42-16.35-14.61-33.89-14.61-49.38,0-15.84,5.42-27.73,15.28-33.49.01,0,.03-.02.04-.02,0,0,.01,0,.02-.01l20.16-11.64c9.9-5.76,22.92-4.57,36.66,3.36,13.39,7.74,25.95,21,35.37,37.35,9.42,16.35,14.62,33.89,14.63,49.38,0,15.76-5.37,27.61-15.13,33.39-.05.04-.11.07-.17.11l-20.21,11.68c-.07.04-.14.08-.22.11-4.07,2.32-8.66,3.48-13.61,3.48ZM282.22,717.45c-8.58,5.04-13.31,15.73-13.3,30.1,0,30.67,21.55,68.07,48.05,83.36,12.49,7.21,24.12,8.41,32.75,3.37.07-.04.15-.08.22-.11l19.84-11.47s.1-.07.15-.1c8.61-5.02,13.36-15.71,13.36-30.12-.02-30.66-21.58-68.06-48.06-83.37-12.48-7.2-24.11-8.4-32.75-3.37,0,0,0,0,0,0l-20.11,11.62s-.09.06-.14.08ZM282.25,717.43h.01s0,0-.01,0ZM282.7,717.1h0s0,0,0,0c0,0,0,0,0,0ZM282.7,717.09h0s0,0,0,0ZM282.71,717.09h0s0,0,0,0ZM282.71,717.08s0,0,0,0c0,0,0,0,0,0ZM280.4,714.01s0,0,0,0c0,0,0,0,0,0ZM280.46,713.98s-.04.02-.06.03c.02-.01.04-.02.06-.03ZM280.46,713.98s0,0,0,0c0,0,0,0,0,0ZM280.47,713.98s0,0,0,0c0,0,0,0,0,0ZM301.5,704.07h0,0Z"/>
      <path class="cls-4" d="M360.8,831.1c-.33,0-.66-.17-.84-.48-.27-.46-.11-1.06.35-1.33,8.92-5.2,13.83-16.19,13.83-30.96,0-20.71-9.82-45.36-25.62-64.33-.34-.41-.29-1.03.12-1.37.41-.34,1.03-.29,1.37.12,16.08,19.31,26.07,44.43,26.07,65.57,0,15.48-5.26,27.07-14.8,32.64-.15.09-.32.13-.49.13ZM335.98,721.11c-.22,0-.43-.07-.61-.22-3.2-2.6-6.49-4.88-9.76-6.78-1.06-.6-2.12-1.17-3.16-1.7-.48-.24-.67-.83-.43-1.31.24-.48.83-.67,1.31-.43,1.07.54,2.17,1.13,3.26,1.75,3.37,1.95,6.74,4.29,10.02,6.95.42.34.48.95.14,1.37-.19.24-.47.36-.76.36Z"/>
      <path class="cls-4" d="M337.85,841.25c-7.05,0-14.82-2.34-22.83-6.97-13.39-7.73-25.95-20.99-35.38-37.35-9.42-16.35-14.61-33.89-14.61-49.38,0-15.91,5.46-27.82,15.37-33.54,9.88-5.71,22.87-4.49,36.57,3.41,0,0,0,0,0,0,13.39,7.73,25.95,21,35.38,37.35,9.43,16.35,14.62,33.89,14.62,49.39,0,15.91-5.47,27.83-15.39,33.55-4.1,2.36-8.73,3.54-13.73,3.54ZM294.14,714.36c-4.33,0-8.31,1-11.81,3.02-8.66,5-13.42,15.72-13.42,30.17,0,30.67,21.55,68.07,48.05,83.36,12.44,7.19,24.04,8.4,32.67,3.43,8.66-5,13.44-15.72,13.44-30.18,0-30.67-21.57-68.06-48.06-83.37-7.4-4.27-14.51-6.43-20.87-6.43Z"/>
      <path class="cls-4" d="M341.02,819.57c-2.62,0-6.15-.91-9.84-3.55-.02-.02-.05-.04-.07-.06-7-5.53-16.86-18.49-25.73-33.83-.03-.05-.06-.1-.08-.15-8.83-15.29-15.11-30.23-16.39-39.03,0-.03,0-.06-.01-.09-.61-6.12,1.42-10.41,3.34-12.22,1.65-1.55,3.8-2.17,6.22-1.78.07.01.14.03.2.04l3.06.84c1.36.2,2.71,1.23,3.59,2.75.15.25.28.52.41.82l7.14,17.35c.65,1.56.74,2.82.27,3.84-.34.74-.97,1.29-1.77,1.55l-3.89,1.19s-.1.03-.15.04c-.27.06-.35.13-.35.13h0s-.23.6.59,2.43c0,0,0,.02.01.03,2.23,5.24,4.85,10.4,8.23,16.24,3.38,5.85,6.55,10.69,9.97,15.23,0,0,.01.02.02.03,1.17,1.61,1.81,1.72,1.84,1.73,0,0,.1-.04.28-.23.03-.04.07-.07.11-.11l2.96-2.74c.63-.57,1.42-.84,2.23-.77,1.12.1,2.16.8,3.2,2.16l11.47,14.83c.19.25.36.51.52.78.88,1.54,1.1,3.23.59,4.5l-.81,3.06c-.02.07-.04.14-.07.2-.88,2.28-2.48,3.82-4.64,4.47-.67.2-1.51.32-2.46.32ZM333.48,812.88c2.61,1.86,6.49,3.36,8.88,2.64.98-.29,1.65-.95,2.09-2.05l.81-3.09c.03-.1.06-.21.11-.3.02-.15-.05-.6-.35-1.12-.07-.13-.15-.25-.23-.36l-11.47-14.82c-.11-.15-.21-.26-.3-.36l-2.33,2.15c-1.2,1.26-2.45,1.46-3.3,1.41-1.64-.1-3.19-1.18-4.75-3.31-3.51-4.67-6.76-9.63-10.22-15.61-3.46-5.98-6.14-11.27-8.44-16.65-1.07-2.41-1.23-4.29-.49-5.76.38-.76,1.19-1.75,2.89-2.15l3.03-.93c-.04-.12-.09-.26-.16-.42l-7.13-17.34c-.05-.12-.11-.24-.17-.34,0-.01-.01-.02-.02-.03-.3-.53-.66-.8-.8-.86-.11-.01-.21-.03-.31-.06l-3.09-.84c-1.19-.17-2.09.08-2.84.78-1.81,1.71-2.45,5.79-2.14,8.96,1.23,8.37,7.36,22.83,15.98,37.74.03.05.05.1.08.15,8.61,14.86,18.05,27.32,24.66,32.56ZM345.37,810.1h0s0,0,0,0Z"/>
    </g>
  </g>
  <g>
    <path class="cls-3" d="M336.21,553.82c-14.56-8.41-27.55-9.76-36.11-5.07h0s-20.27,11.69-20.27,11.69v.02c-6.54,3.62-10.48,10.79-10.48,21.08,0,23.74,20.88,55.03,46.64,69.91,1.4.81,2.77,1.52,4.13,2.19,6.72,11.18,15.6,20.82,25.4,26.48.52.3,1.04.53,1.56.81l20.22-11.67c-2.65-6.14-4.45-12.41-5.27-18.48l10.42-6.01h0c6.51-3.63,10.42-10.77,10.42-21.02,0-23.73-20.88-55.04-46.65-69.91Z"/>
    <path class="cls-1" d="M372.76,629.56c0-23.73-20.89-55.04-46.65-69.91-25.77-14.88-46.65-7.69-46.65,16.04s20.88,55.03,46.65,69.91c1.39.81,2.77,1.52,4.13,2.19,6.73,11.18,15.6,20.82,25.4,26.48.52.3,1.04.53,1.57.81-3.14-7.26-5.15-14.7-5.69-21.76,12.78-.29,21.26-8.65,21.26-23.75Z"/>
    <path class="cls-4" d="M347.08,682.86c-.32,0-.63-.08-.92-.23-.2-.11-.4-.21-.6-.3-.32-.16-.65-.32-1.01-.53-9.53-5.5-18.67-14.96-25.8-26.67-1.4-.7-2.6-1.34-3.73-2-12.72-7.34-24.66-18.79-33.63-32.24-9.02-13.52-13.99-27.5-13.99-39.36,0-10.49,4-18.52,11.26-22.65.06-.05.12-.09.19-.13l20.27-11.7c.08-.05.17-.09.26-.13,9.52-5.07,23.28-3.18,37.81,5.21,12.72,7.34,24.66,18.79,33.64,32.24,9.02,13.52,13.99,27.5,13.99,39.36,0,10.47-3.99,18.49-11.25,22.61-.05.03-.1.06-.15.09l-9.27,5.35c.87,5.49,2.53,11.1,4.94,16.68.39.91.04,1.96-.81,2.46l-20.22,11.67c-.3.17-.64.26-.97.26ZM281.02,561.99c-.08.06-.16.11-.24.16-6.2,3.43-9.48,10.13-9.48,19.38,0,23.07,20.48,53.68,45.67,68.22,1.2.69,2.48,1.37,4.02,2.13.33.17.61.42.81.74,6.84,11.38,15.61,20.54,24.7,25.79.17.1.34.19.52.28l17.83-10.29c-2.37-5.82-3.96-11.66-4.74-17.39-.11-.78.27-1.55.95-1.95l10.26-5.92c.06-.04.12-.08.19-.12,6.16-3.43,9.42-10.1,9.42-19.31,0-23.08-20.49-53.69-45.68-68.23,0,0,0,0,0,0-13.43-7.76-25.9-9.6-34.2-5.05-.06.03-.11.06-.17.08l-19.85,11.46ZM372.45,644.75h0,0Z"/>
    <path class="cls-4" d="M362.33,651.55c-.34,0-.67-.18-.85-.5-.26-.47-.09-1.06.38-1.32,6.49-3.61,9.93-10.58,9.93-20.16,0-20-15.46-46.4-36.77-62.76-.43-.33-.51-.94-.18-1.36.33-.43.94-.51,1.36-.18,10.45,8.02,19.95,18.81,26.77,30.38,6.93,11.76,10.75,23.81,10.75,33.92s-3.88,17.95-10.93,21.86c-.15.08-.31.12-.47.12ZM326.1,560.62c-.17,0-.33-.04-.49-.13-4.14-2.39-8.22-4.24-12.14-5.51-.51-.17-.79-.71-.63-1.23.17-.51.71-.79,1.23-.63,4.05,1.31,8.26,3.22,12.51,5.68.47.27.62.86.36,1.33-.18.31-.51.49-.84.49Z"/>
    <path class="cls-4" d="M347.08,682.86c-.31,0-.63-.08-.92-.23-.2-.11-.4-.21-.6-.3-.32-.16-.65-.32-1.01-.53-9.53-5.5-18.67-14.96-25.8-26.67-1.4-.7-2.6-1.34-3.73-2-12.72-7.34-24.66-18.79-33.63-32.24-9.02-13.52-13.99-27.5-13.99-39.36,0-10.42,3.96-18.45,11.14-22.6,9.53-5.5,23.54-3.73,38.43,4.87,12.72,7.34,24.66,18.79,33.64,32.24,9.02,13.52,13.99,27.5,13.99,39.36,0,7.78-2.2,14.26-6.35,18.75-3.65,3.94-8.7,6.28-14.72,6.83.7,6.08,2.53,12.66,5.34,19.17.33.76.14,1.64-.47,2.2-.37.34-.84.51-1.32.51ZM291.27,559.66c-4.08,0-7.73.87-10.79,2.64-6.01,3.47-9.19,10.12-9.19,19.23,0,23.07,20.48,53.68,45.67,68.22,1.2.69,2.48,1.37,4.02,2.13.33.17.61.42.81.74,6.01,10,13.51,18.28,21.4,23.71-2.07-5.85-3.32-11.56-3.74-17.04-.04-.53.14-1.06.5-1.45.36-.4.86-.63,1.4-.64,5.86-.13,10.71-2.1,14.04-5.7,3.48-3.76,5.32-9.33,5.32-16.11,0-23.08-20.49-53.69-45.69-68.23-8.61-4.97-16.79-7.51-23.74-7.51Z"/>
    <path class="cls-4" d="M337.54,625.54c-.74,0-1.51-.21-2.22-.62-1.82-1.05-3.14-3.33-3.14-5.43,0-1.55.73-2.9,1.95-3.6,1.22-.71,2.76-.66,4.11.12,1.82,1.06,3.14,3.34,3.14,5.42,0,1.56-.73,2.91-1.95,3.61-.58.33-1.23.5-1.89.5ZM335.55,621.49h0ZM335.58,621.16c.37.1.92.1,1.47-.22.56-.32.84-.81.93-1.18-.36-.1-.92-.1-1.47.22-.56.32-.84.81-.93,1.18ZM338.02,619.44h0ZM316.75,613.54c-.74,0-1.51-.21-2.22-.62,0,0,0,0,0,0-1.81-1.05-3.12-3.33-3.12-5.42,0-1.56.73-2.9,1.95-3.61,1.22-.7,2.76-.66,4.11.13,1.81,1.05,3.13,3.32,3.13,5.41,0,1.56-.73,2.91-1.95,3.61-.58.33-1.22.5-1.89.5ZM314.76,609.49h0s0,0,0,0ZM314.79,609.16c.36.1.92.1,1.47-.22.56-.32.84-.81.94-1.18-.36-.1-.92-.1-1.48.22-.56.32-.84.81-.93,1.18ZM295.97,601.54c-.74,0-1.51-.21-2.22-.62-1.82-1.05-3.14-3.33-3.13-5.43,0-1.55.72-2.89,1.93-3.6,1.22-.71,2.76-.67,4.12.11,1.82,1.05,3.14,3.33,3.14,5.42,0,1.56-.73,2.91-1.95,3.61-.58.33-1.22.5-1.89.5ZM293.97,597.49h0,0ZM294.01,597.16c.37.1.92.1,1.48-.23.55-.32.83-.8.93-1.17-.36-.1-.92-.1-1.47.22-.56.32-.84.81-.93,1.18ZM296.45,595.45h0s0,0,0,0Z"/>
    <path class="cls-4" d="M353.4,657.69c-.67,0-1.33-.35-1.69-.97-.54-.93-.22-2.12.71-2.66l8.63-4.98c.93-.54,2.12-.22,2.66.71.54.93.22,2.12-.71,2.66l-8.63,4.98c-.31.18-.64.26-.97.26Z"/>
  </g>
</svg>